<?xml version="1.0" encoding="UTF-8"?>
<svg id="Layer_2" data-name="Layer 2" xmlns="http://www.w3.org/2000/svg" viewBox="0 0 5880.95 5869.57">
  <defs>
    <style>
      .cls-1 {
        fill: #ea6a31;
      }
    </style>
  </defs>
  <g id="Layer_1-2" data-name="Layer 1">
    <g>
      <path class="cls-1" d="M5846.98,3030.29l-5.68-213.87c-.61-22.94-3.66-36.41,9.41-56.53l12.74,180.3c2.19,31-1.1,59.69-16.46,90.1Z"/>
      <path class="cls-1" d="M18.93,3051.24l1.73,26.98c.26,3.97-9.21,1.21-19.23-1.47l-1.43-165.32c15.52,44.06,15.45,85.64,18.93,139.8Z"/>
      <path class="cls-1" d="M3038.74,0c-38.17,21.33-77.58,18.7-119.91,11.34l-61.63-10.71,181.54-.63Z"/>
      <path class="cls-1" d="M2626.2,5863.18l-73.98,6.38c6.56-23.98,19.75-38.87,32.38-35.96,13.17,3.03,25.7,12.93,41.61,29.58Z"/>
      <g>
        <path class="cls-1" d="M615.71,4543.86c-72.98-97.48-135.06-202.68-189.69-316.09l-103.2-191.83c-49.52-92.05-101.78-181.5-126.46-284.64l-10.89-86.99,18.63-6.71-30.76-113.96-11,51.66c-11.32-44.47-13.52-89.77-23.31-137.32l-17.61-85.56-16.81-173.26-16.15-100.85,1.2-134.34c-17.77-104.09-15.68-190.35,17.33-290.36,29.79-90.28-1.63-269.35,48.76-371.38,10.15-20.55,23.84-39.92,27.88-62.24l30.25-166.92,30.83-172.28c-38.82,56.81-43.06,126.41-60.45,190.76l-34.05,125.99c-1.68-148.92,103.67-358.72,108.41-436.27l4.01-65.62,20.28,27.29c40.3-73.89,27.54-143.82,67.15-217.85l7.2,29.87,34.18-36.86-53.13,166.35c-1.32,4.12,17.39,18.47,15.42,22.31l-11.96,23.33c-8.82,17.21-15.17,36.74-10.9,59.14,60.89-87.73,92.17-173.01,114.4-282.62l-45.38,67.98c12.98-52.03,21.98-93.24,22.88-143.57l32.62-38.32,64.51-116.08,6.11,5.37-35.82,102.52,115.3-143.63,46.5-77.22c17.37-28.85,52.34-52.25,82.22-47.09,12.63,1.29,43.71-6.39,55.47-13.16,19.75-21.28,47.72-54.45,57.71-77.58,15.01-34.75,35.63-53.15,62.73-80.08l89.13-88.56c68.56-68.13,170.48-114.96,233.05-242.22l-42.55,18.79,1.28-31.79-172.99,157.73c-1.64,10.63-6.29,36.67-13.64,43.53l-98.85,92.27-84.84,78.37,6.37-37.99-61.22,74.13c-19.54,23.66-27.62,63.78-65.77,67.2l55.98-80.87c15.04-21.18,31.46-39.95,38.82-61.95,12.38-36.99,108.38-115.69,173.73-153.9,48.57-28.4,84.91-75.07,122.16-117.89,40.48-46.54,89.9-82.82,138.43-118.99l28.36,17.85,69.53-56.44,48.28-47.59c3.6-3.55,18.91-11.4,22.6-9.19l20.73,12.44,60.28-26.13c81.48-35.31,148.3-94.7,216.1-150.15,81.39-66.56,175.25-94.08,274.2-123.37,196.51-58.17,461.88-152.43,654.81-127.07,48.97,6.44,107.63,3.18,162.43,1.94l134.41-3.05,223.85-16.32c34.66-2.53,77.45,4.49,109.38,14.59-59.32-.07-106.15-4.67-158.76,9.28l139.4,12.7c31.08,2.83,81.8-6.06,107.41-.32l94.81,21.26c-38.32,32.64-88.1,9.68-132.06,6.74l-161.34-10.78c-60.92-4.07-122.04-4.3-179.46,5.38,157.31,12.73,303.61,23.42,456.25,46.36l137.78-53.89c104.22,9.24,216.54,43.04,318.65,82.51l121.81,47.07c9.19-.32,8.83,13.34-1.71,21.69-63.24-23.96-124.78-44.1-189.36-54.71l-121.77-20,85.05,3.76c-22.44-42.37-110.24-62.31-166.94-51.89l90.67,43.63c-54.6-6.32-84.89-15.75-130.29,3.87,6.66,10.65,24.34,25.91,35.15,26.97l102.31,10.02-22.85-23.76c118.18,22.72,227.2,47.48,335.17,90.45l97.29,38.72c32.05,12.75,74.87,34.58,102.78,55.41l71.55,53.42c72.23,38.05,148.39,68.87,210.34,118.41,45.8,36.63,85.6,66.78,142.17,90.05l-28.69-30,6.28-4.02,93.2,46.4c-30.35-31.43-74.56-45.57-105.32-74.27-48.57-45.3-96.85-84.79-163.33-105.33-49.73-15.36-94.03-38.62-139.87-65.82l-58.5-19.06,44.05-.11-52.86-39.49,111.08,32.35c1.66,18.95,3.7,34.66,12.17,39.59,11.46,6.67,28.83,3.32,41.16-9.33,113.06,71.22,218.52,152.98,326.09,234.58l72.51,55.01-30.41,26.66-81.17-60.27c10.67,41.31,39.88,58.49,69.72,83.25l98.17,81.46,55.56,38.71c25.67,17.88,34.39,42.75,67.53,45.58l-87.69-93.48c31.5,5.76,43.89,22.07,62.41,44.78l51.58,63.25,47.86,52.54-76.75-42.7c11.3,30.13,24.72,33.06,42.74,48.88l104.92,92.07c-10.86-53.47-54.36-58.1-32.99-78.09l-29.93-46.99c70.66,53.57,125.9,112.35,173.2,184.28l-46.77,2.72-58.93-61.57-23.73,21.65,51.83,68.82,70.73,98.49-5.81-46.57,169.32,201.55-1.8,13.68-79.98-87.61c.39-1.08-1.85,5.02-6.11,16.84l101.67,139.58,43.83,51.01,62.41,98.73,10.41-24.42,83.12,112.22c3.61,20.61,10.68,55.8,18.95,77.38l134.14,349.8c18.01,46.98,34.49,89.82,37.73,142.61,4.04,65.74,12.15,139.82,30.63,200.37l24.63,49.3c1.41,2.82-14.43,5.05-17.64,5.36-11.04,1.07,38.31,104.27,19.97,183.56l-19.48-111.67-8.37,58.79-35.46-157.18c-24.59,88.66,59.15,188.21,36.89,302.04l-27.34-150.54c-20.22,51.84,2.95,94.89,6.2,139.13l11.99,163.11,25.78,120.9c3.35-8.73,41.13-4.42,41.21,8.77.3,49.26-6.49,104.41-23.55,148.32l-28.56-130.17-19.46-62.87c-37.69,38.52-27.83,83.31-3.81,119.13l-21.53,170.36-9.28,197.44c32.16-70.84,48.65-135.69,63.62-218.58l-27.89-13.74,8.68-77.36c8.91,30.09,22.63,53.33,22.13,76.7l-1.5,70.77c-.91,42.94-16.48,75.08-30.31,114.53l-75.75,216.06c-6.84-19.28-12.29-21.99-16.41-7.72l-43.9,155.62-19.66,109.53-11.74-28.04c-1.3-3.12-15.53,5.9-17.95,9.87l-67.42,110.75c-.67,19.19-6.5,16.78-12.2.42,2.76-63.76,35.73-134.34,27.65-220.74-168.07,500.55-471.97,937.07-883.73,1268.77l-52.49,57.85c27.07-9.94,32.99-28.12,65.93-24.16-107.47,101.5-223.84,195.11-351.15,257.87-46.76,23.05-96.54,33.28-135.17,68.78l74.4-25.45c-26.31,22.03-51.37,32.4-82.51,44.34l-179.35,68.79c-44.53,17.08-91.88,28.6-128.52,49.27,2.19,12.64-1.19,30-7.95,31.37l-127.89,25.99c-123.26,25.05-235.09,93.96-362.83,93.15l-94.76-.6-222.88,22.21c-149.38,14.88-292.97,34.05-444.87,13.46,77.17-22.47,166.76,12.52,250.72-31.97-76.27-2.13-146.22,8.72-215.88,2.6l-72.95-6.42-182.23-15.48c38.18,43.44,103.39,3.15,140.35,45.73l-201.7-29.74-62.66-25.3-200.56-60.21-87.76-36.44-206.78-87.52c-104.71-44.32-216.13-70.09-318.95-120.97-70.91-35.09-128.08-92.55-193.11-136.27-40.03-26.91-67.35-58.02-85.78-104.11l-79.39-62.65c-4.57-3.61-15.26-11.46-18.9-8.85l-21.1,15.14c-74.76-58.99-161.8-120.44-216.49-203.21-32.86-49.73-59.16-92.13-100.34-134.02-55.6-56.56-97.11-121.43-146.15-185.23-10.14-13.19-14.42-35.91-11.25-48.07l8.35-5.84ZM2233.68,205.51c31.93-1.27,48.3-14.08,57.79-33.37,107.95-31.54,220.41-34.68,333.45-32.31l120.5-40.79c28.87-9.77,56.92-6.96,86.57-6.48l114.2,1.84c-75.25-114.25-164.2,3.97-270.16,10.39l-96.29,5.83-123.42,19.01-2.49-12.27,144.45-33.04c-29.53-2.29-26.93-10.19-12.01-15.32,66.8,1.36,121.53,6.98,177.16-15.19l-129.91.87c-30.59-14.59-62.86-9.33-89.51,14.43-82.38-.94-160.06,1.06-235.25,30.24l-69.11,26.82c-132.18-.85-166.03,83.35-257.79,92.37l107.29-75.6-169.35,60.94c-53.46,19.24-115.77,29.21-161.91,60.69l-109.04,74.39c96.25-37.95,174.24-80.89,274.02-111.33l-126.84,97.22c16.33,14.78,30.28,28.77,37.39,24.41l32.8-20.11,209.62-85.15-69.5-.67,223.07-58.81c-19.3,17.73-13.37,22.22,4.28,21.01ZM3973.57,401.21l144.16,45.17-55.86-61.5c-14.42-15.87-66.63-9.7-86.11-18.31-157.18-69.42-310.89-115.53-475.92-153.72-36.06-8.34-65.36-25.51-105.51-28.21-77.9-5.23-153.02-16.59-232.22-14.78-93.11,2.13-184.62,12.84-277.07,8.01-46.05-2.4-84.54-10.64-141.55,3.4,50,28.44,105.25,34.98,169.09,33.64l122.09-2.56c35.75-23.94,48.83-5.22,83.58-.47l392.8,53.76,78.03,11.98c46.55,18.1,83.34,27.22,133.12,31.86,28.74,2.68,67.3,23.97,95.95,34.51l155.43,57.21ZM2384.14,265.98c-74.61-11.25-132.93,23.76-189.93,52.18,67.38-12.79,129.17-25.77,189.93-52.18ZM4589.64,717.14c-34.1-19.43-52.81-58.75-80.42-80.43-96.61-75.86-238.26-151.52-364.98-164.31,153.05,90.44,316.57,159.21,452.07,271.03l212.98,175.76,101.89,101.58c19.8,19.74,38.54,34.05,67.14,41.08-109.1-133.38-240.93-260.53-388.67-344.72ZM1268.99,799.84c28.95-22.63,58.81-48.83,80.29-74.17l78.62-92.76c-33.73,14.49-54.53,39.84-82.13,61.14-82.32,63.53-165.9,119.03-238.65,188.19l161.88-82.4ZM5476.23,1808.11l-6.04-37.53-91.86-168.79c-15.28-28.08-36.61-50.4-62.61-72.37,102.11,180.77,193.62,365.26,256.53,560.08l1.98-72.18c.46-16.66-22.14-45.58-30.76-64.18l-67.25-145.03ZM380.59,2030.98l49.14-131.27-9.28-6.89-75.9,189.26c19.66-11.42,27.58-28.5,36.04-51.11ZM619.64,4547.93l-6.53,7.99,97.1,127.93-13.47-56.02-77.1-79.91Z"/>
        <path class="cls-1" d="M473.87,4447.18l33.41,55.74,81.59,133.95,11.25,17.57c2.78,4.34-3.66,9.65-10.72,18.33l98.13,99.44,91.16,91.55c8.92,8.96,12.03,41.59,12.7,53.13l-87.66-93.98,38.22,62.46,31.54,65.99c-301.83-325.6-521.2-721.34-653.66-1149.94l-38.94-135.09-52.13-268.09-18.84-46.47-7.54-176.21,33.51,67.83,30.93,184.59,14.54-52.18,54.01,219.48-48.02-56.57,20.07,129.03,12.42-32.78,93.8,234.2-7.22,18.19,44.78,84.53-18.55-.08c-4.12-.02-.22,12.57,2.1,17.53l113.79,242.86,125.32,214.96Z"/>
        <path class="cls-1" d="M26.03,3036.68c-1.57-50.6-5.03-112.6,3.22-167.56,6.78-45.18,20.24-84.39,9.6-129.19l-19.35,69.47-12.24-138.6c-3.44-39.01-10.84-94.23,4.68-129.41,12.29-27.85,32.69-56.46,37.13-85.09l21.04-135.49-26.1-7.57,65.71-159.04c3.28,25.89,8.81,25.53,19.76,10.57-7.61,38.82-15.67,74.14-8.93,113.13-14.52,37.12-20.35,77.24-10.07,114.56l-54.68,249.58,1.56,173.55c17.19,33.46,14.26,80.86,9.56,116.25l-21.84-28.25-6.11,149.98-12.94-16.88Z"/>
        <path class="cls-1" d="M1216.54,5343.04l-160.59-128.11c-23.42-18.69-36.91-53.34-57.35-76.33l-54.44-61.21-12.79,13.4c-1.65,1.73-13.06-3.34-15.85-6.39l-103.93-113.56c32.51,17.37,58.73,33.95,82.5,38.2,149.91,132.95,303.17,259.09,478.24,381.98-67.58-9.34-98.26-77.8-169.1-83.39l15.64,20.15-2.33,15.26Z"/>
        <path class="cls-1" d="M5238.41,4721.5l34.05-93.7-34.24,39.95c-8.99-6.45-18.48-12.31-18.1-16.94.5-6.16,6.13-23.76,10.37-29.43l109.05-145.86,82.81-152.85-18.11,64.28c34.73,47.66-82.51,113.26-78.99,197.93l24.29-27.79c4.47-5.12,16.54.08,18.9,6.78-36.05,51.57-73.22,113.19-130.04,157.64Z"/>
        <path class="cls-1" d="M1743.72,5602.91l23.9,46c-142.57-55.71-274.73-132.48-408.77-210.73l61.96-5.82,322.9,170.54Z"/>
        <path class="cls-1" d="M5427.39,4435.61c-5.02-21.07,5.69-40.1,17.04-62.86l42.26-84.75,51.25-79.72c21.32-33.16,37.85-64.21,56.88-105.79-22.74,126.55-79.61,245.91-147.53,360.27l2.78-58.07-22.68,30.93Z"/>
        <path class="cls-1" d="M4975.62,4948.04c34.92-72.05,89.87-64.42,109.48-122.46,15.51-45.89,51.38-79.54,85.51-104.69-2.78,66.34-29.42,102.67-75.36,135.87l-65.71,68.8-53.92,22.48Z"/>
        <path class="cls-1" d="M129.23,2078.91c-5.31-58.23,23.81-103.35,55.01-150.41-14.07,50.2-31.42,97.47-55.01,150.41Z"/>
      </g>
    </g>
  </g>
</svg>