<?xml version="1.0" encoding="UTF-8"?>
<svg id="Layer_2" data-name="Layer 2" xmlns="http://www.w3.org/2000/svg" viewBox="0 0 519 367.74">
  <defs>
    <style>
      .cls-1 {
        fill: #f65b10;
      }

      .cls-2 {
        fill: #231913;
      }
    </style>
  </defs>
  <g id="Layer_1-2" data-name="Layer 1">
    <g>
      <g>
        <path class="cls-1" d="M459.22,162.02l1.95-10.18.7-1.91,1.83-6.38,6.98-24.92,1.29-2.83c.93-2.04,3.42-2.81,5.03-2.37,2.43.66,4.02,2.59,3.88,5.46-.07,1.5-.39,2.87-.8,4.2l-3.99,12.98-.94,3.02-7.86,24.14c-.85,2.61-2.45,5.76-6.1,4.93-2.23-.51-2.4-4-1.99-6.13Z"/>
        <path class="cls-1" d="M484.38,167.79l3.13-3.28,4.74-5.33,3.23-3.9,5.09-5.95,10.72-10.94c1.77-1.8,4.36-.96,5.71.02,1.88,1.36,2.93,4.51.93,6.57l-15.68,16.15-14.62,14.24c-1.1,1.07-3.73,1.51-4.79.74-1.46-1.06-1.98-3.27-1.18-4.42l2.72-3.91Z"/>
      </g>
      <g>
        <g>
          <path class="cls-1" d="M66.71,349.43l-6.6-.88c-5.79-.77-11.29-2.5-15.98-5.8l-4.13-2.9c-1.68-1.18-2.73-2.39-3.96-4.05l-2.16-2.91c-4.9-6.58-5.5-15.32-5.68-24.09-.03-1.55-.35-3.86,1.84-3.98l4.59-.26,3.34-.4,20.67-.62c2.19-.07,4.56-.68,6.55.03,1.78.63-.41,7.45,2.84,12.42,2.48,3.8,8.62,4.83,12.9,2.82,5.86-2.75,6.53-9.84,3.09-14.96-1.34-1.99-3.14-3.53-5.05-4.91l-2.32-1.67c-1.83-1.32-3.66-2.29-5.65-3.34l-5.32-2.79-9.88-6.13c-1.48-.92-2.5-2.03-4.01-3.01l-3.6-2.34c-3.15-2.04-5.88-3.94-8.55-6.46-6.86-6.46-10.81-14.77-10.97-24.25l-.13-7.43c-.08-4.49.9-9.05,2.72-13.37l1.46-3.49c.92-2.2,4.94-7.01,7.85-9.26l3.37-2.62c1.9-1.47,7.64-4.2,10.01-4.92l4.57-1.38c2.63-.8,4.55-1.75,7.51-1.73l2.03-.68c7.23-.46,14.21-.83,21.21.41,2.73.48,5.01,1.37,7.76,2.29l2.22.75c2.5.84,4.51,1.81,6.73,3.32l3.06,2.07c9.32,6.31,12.53,14.83,13.25,25.57l.43,6.38c.09,1.3-1.37,2.82-2.73,2.85l-19.98.5-13.62.44c-.41-.07-1.14-1.75-1.01-2.15,1.24-3.63-.97-11.01-5.46-12.48-4.13-1.35-9.1-.38-11.69,3.13-4.21,5.71.48,12.99,7.67,17.67l3.1,2.02,2.88,2.14,7.33,4.64,7.05,3.94,3.74,2.31,4.12,2.81c3.91,2.67,7.15,5.27,10.78,8.35l2.1,1.78c10.29,12.91,10.74,30.91,3.79,44.89l-2.4,3.44c-1.73,2.48-5,5.78-7.53,7.74l-3.26,2.52c-8.72,5.07-18.26,7.52-28.34,7.78l-2.26.5-10.29-.25Z"/>
          <path class="cls-1" d="M363.21,288.57l8.74-.4,15.02-.26c.93-.02,1.88,1.11,1.85,1.95l-.57,15.28c-.35,9.41-6.91,19.42-15.22,25.76l-2.06.97-7.15,3.86-3.45,1.57-4.47,1.41-4.91.99c-7.41,1.49-14.51,1.71-22.03.67l-5.01-.69c-1.27-.18-1.96-.49-2.98-.74l-3.2-.79c-2.63-.65-4.54-1.87-6.78-3.24l-4.99-3.04-4.39-3.61c-5.09-4.19-8.84-11.46-10.08-18.03l-.94-4.97-.95-10.03-.45-8.33-.42-22.99-.09-19.02c-.07-14.41,3.12-27.16,13.59-36.69l4.69-4.28,3.72-2.31c7.82-4.86,16.84-6.2,25.94-7.02l4.35-.4c1.63-.15,2.91.27,4.36.42l9.03.96,3.98.87c2.39.52,4.43,1.14,6.69,2.31l3.34,1.74,5.23,2.79c6.74,5.44,11.78,12.48,12.94,21.02l1.16,8.6.09,9.97c.01,1.65-2.54,1.81-3.67,1.81h-7.15s-18.63.61-18.63.61l-5.46.61c-.84.09-2.58-.14-2.64-1.33l-.57-10.29c-.13-2.34-.69-4.15-2.26-5.8-3.31-3.49-7.64-4.68-12.51-2.44-5.13,2.36-6.15,7.06-6.15,12.87v16.04s.52,38.66.52,38.66l.43,6.35c.25,3.61,2.07,7.38,5.21,8.93,3.48,1.72,6.76,1.55,10.1.05,3.78-1.7,5.8-5.31,5.74-9.31l-.13-8.95c-.02-1.41,1.04-1.81,2.31-1.84l10.33-.22Z"/>
          <path class="cls-1" d="M450.96,304.15l15.7-.53,14.39-.65c1.26-.06,4.47-.35,4.57.84l.61,6.78.35,10.32c.12,3.56.54,7.33-.03,10.59-.32,1.79-3.12,1.97-4.53,2l-28.78.71-9.28.45-18.68.6-18.32.71c-2.06.08-3.01-1.14-3.04-3.07l-.27-15.74-.29-19.28-.3-18.99-.25-10.04-.65-41.95-.35-28.09c-.02-1.39-.16-4.29,1.49-4.35l6.67-.24,14.73-.58,14.26-.53,12.71-.54,11.3-.4,19.07-.44c1.45-.03,1.97.71,1.99,2.07l.23,15.78.27,11.08c.01.43-.91,1.17-1.53,1.21l-5.81.37-25.85.94c-6.45.24-10.17.28-10.18,2.71l-.04,8.98.27,8.01c.07,2.13-.22,3.86.78,6.11l27.47-.61c5.38-.12,11.03-2.07,11.08,1.93l.3,24.56c0,.67-.64,1.81-1.31,1.84l-9.77.41-23.72,1.02-2.76.29c-.72.08-1.37,1.39-1.35,2.49l.16,9.67.49,3.22.1,10.24,8.1.09Z"/>
          <path class="cls-1" d="M220.27,335.8c.03,1.74,1.01,3.77.03,5.29-1.12,1.75-2.59,1.49-4.31,1.54l-24.71.69-25.19.97-24.18.67c-.83.02-1.78-1.16-2.53-1.76l-.33-19.34-.81-44.98-.69-44.65-.61-27.39c-.02-.97.1-2.61,1.42-2.66l18.26-.65,7.34-.37,10.07-.31c1.24-.04,2.28.44,2.33,1.76l.35,10.31.49,43.95.55,32.01.32,20.93c.01.9,1.02,1.4,1.86,1.37l13.04-.48c9.09-.33,17.78-1.11,26.92-.76l.37,23.87Z"/>
          <path class="cls-1" d="M253.48,341.46l-15.59.47c-.95.03-3.33-.46-3.35-1.41l-.32-18.65-.46-23.7-.47-22.3-.49-22.74-.58-26.25-.45-12.72-.18-11.53c0-.54,1.64-2.08,2.17-2.1l14.19-.43,11.71-.5,11.04-.33c.45-.01,1.23.97,1.24,1.59l.32,21.74.51,25.26.39,22.8.65,42.19.42,23.69c.01.78.44,1.8.04,2.61-.5,1.01-.96,1.53-2.32,1.6l-7.74.39c-3.25.16-6.74.2-10.73.32Z"/>
        </g>
        <path class="cls-1" d="M155.23,366.13l-42.96,1.03-35.3.58-10.01-.1-25-.23-7.59.05c-.54-.25-1.17-.9-2.5-.82l-5.25.31c-1.64.69-2.03-1.53-.15-1.11.86-1.48,2.01-.4,2.4-.37l14.09-1.19,10.01-.55,16.62-1.14,8.38-.26c2.01-.06,3.9-.52,5.78-.64l7.19-.45,12.75-.56,14.25-.54,9.8-.45,14.21-.48,10.76-.49,33.9-1.14,11.34-.42,22.68-.59,11.31-.4,14.74-.46,14.26-.52,12.76-.53,24.24-.55,13.76-.4,41.27-.58,60.94.05,38.05.51c3.54.05,6.88.7,10.25.92l8.73.57,11.22.42,7.76.34c-.31,2.08-2.32,1.48-7,1.64l-11.71.42-3.24.39-7.04.17h-17.99s-14,.11-14,.11l-16.74.45-29.26.53-25.98.46-10.04.48-5.98-.03-22.67.64-8.32.42-20.71.55-2.31.35-4.97-.12-29.59.93c-4.84.15-9.41.34-14.44.49l-28.97.86-23.65.4-2.34.58-27.74.47Z"/>
        <g>
          <g>
            <path class="cls-1" d="M43.94,40.31c1.69-.93,3.91-.28,5.66-.56.75-.67,1.26-.91,2.34-.93l14.74-.18,13.27-.5,8.76-.56,9.26-.32,10.94-.54,22.78-1.08,14.26-.48,8.97-.48,20.04-.51,25.97-1.05,8.8-.46,18.02-.95,19.21-.59,25.98-1,12.09-.43c1.44-.05,3.74-2.4,3.75-3.64l.07-8.65c.02-2.12,2.39-2.15,2.23.02l-.78,8.72c-.26,2.87-2,5.2-5.37,5.47l-5.76.46-18.97,1.03c-1.96.11-4.08.19-6.24.27l-28.03,1.06-10.98.19-20.98,1.03-10.61.61c-1.68.1-2.8,0-4.42.06l-56.96,2.25-15.04.92c-1.32.08-2.65.05-3.95.1l-13.81.55-11.24.4-15.97.45-17.52-.12c-.35-.25-.54-.58-.52-.57Z"/>
            <path class="cls-1" d="M232.99,4.07l-30.05,1.31h-2.98c-5.14,0-9.89-.03-15.01.42l-5.34.46-13.71-.62c.03-.32.23-.63.56-.78l6.48-.15,8.02-.66,8.99-.27,16.73-1.11,14.28-.52,5.79-.46,17.24-.58L279.92.02c6.17-.19,10.01.75,10.24,5.74l.25,5.27c-1.91-.07-1.61-1.31-1.44-2.01-1.75-4.42-.92-7.19-4.98-7.1l-9.77.21-15.98.97-6.37.38c-1.94.12-3.91-.04-5.88.04l-12.99.55Z"/>
            <rect class="cls-1" x="54.93" y="7.63" width="77.06" height="2.66" transform="translate(-.27 3.44) rotate(-2.11)"/>
            <path class="cls-1" d="M138.69,26.95c-.33-1.54-.38-2.14-1.77-2.81.19,2.2-.24,2.81-.69,3.29-.8.87-2.58.43-2.7-.98-.11-1.33-.24-2.32-1.55-3.24-.68,2.32-.36,2.93-.31,4.47-.88.24-1.58.35-2.77.12l-.45-11.35h3.77c.81,2.57,1.63,4.32,3.37,5.71.8-2.33,1.02-3.97,2.22-5.59.57-.77,2.78-.78,3.99-.34l.11,10.75c-.28.75-2.86.98-3.24-.04Z"/>
            <path class="cls-1" d="M234.18,22.63v-5.08c-1.62.36-1.1,2.88-3.16,5.93-1.68.39-2.83-1.43-3.36-4.12-1.78.91-.21,3.34-1.45,4.16-.31.2-1.77.29-2.14-.03l-.64-11.04,3.83-.03c.86,2.55,1.75,4.26,3.34,5.81,1.43-4.58,2.04-6.97,5.94-6.2l.91,10.61c-.27.13-1.59.84-3.26,0Z"/>
            <path class="cls-1" d="M58.66,28.54l-.5-8.34c.43-.48,1.88-.69,3.2-.26l.11,6.92c.02,1.03,1.45,1.56,1.94,1.44,2.03-.52,1.81-4.04.97-8.44,1.14-.69,3.02-.68,4.09-.02l-.38,7.22c-.09,1.78-1.29,3.29-3.15,3.79-2.33.62-6.14.09-6.28-2.3Z"/>
            <path class="cls-1" d="M55.42,25.94c0,3.29-2.66,5.95-5.95,5.95s-5.95-2.66-5.95-5.95,2.66-5.95,5.95-5.95,5.95,2.66,5.95,5.95ZM52.74,25.75c0-1.69-1.37-3.07-3.07-3.07s-3.07,1.37-3.07,3.07,1.37,3.07,3.07,3.07,3.07-1.37,3.07-3.07Z"/>
            <path class="cls-1" d="M125.88,22.66c0,3.31-2.68,5.99-5.99,5.99s-5.99-2.68-5.99-5.99,2.68-5.99,5.99-5.99,5.99,2.68,5.99,5.99ZM123.06,22.56c0-1.7-1.38-3.07-3.07-3.07s-3.07,1.38-3.07,3.07,1.38,3.07,3.07,3.07,3.07-1.38,3.07-3.07Z"/>
            <path class="cls-1" d="M110.84,28.16c-.18,1.08-3.85.95-3.62-1.71-.41-1.73-2.78-.53-1.55.98-.16,1.7-3.24,1.97-3.27,1.15l-.29-10.52,4.83-.23c2.1-.1,3.41.49,4.37,2.11.78,1.31-.53,3.66-1.47,4.77-.22.28,1.27,1.8.99,3.46ZM108.03,21.2c0-.85-.69-1.54-1.54-1.54s-1.54.69-1.54,1.54.69,1.54,1.54,1.54,1.54-.69,1.54-1.54Z"/>
            <path class="cls-1" d="M96.14,25.43c-1.22.16-2.1.55-2.36.97-.32.51-.15,1.56-.1,2.45.07,1.43-3.15,1.39-3.17.59l-.23-10.51c-.03-1.22,7.61-1.57,8.92,1.35,1.06,2.36-.09,4.77-3.06,5.15ZM95.76,20.98c-1.79-.55-2.54.05-2.81.4s-.1,1.45,1.05,1.63c1.67.27,2.42-.79,1.75-2.03Z"/>
            <path class="cls-1" d="M170.68,20.01c-.19,2.22-2.87,1.44-3.59,1.76-2.29,1.03-.53,2.06,4.1,2.15.33.17.34,1.87.1,2.29l-7.71.35-.22-11.57c2.4-.19,4.86-.44,7.34.1.49.11.19,1.97-.73,1.86-1.69-.2-3.19.19-3.67,2.1,2-.34,4.25.18,4.38.95Z"/>
            <path class="cls-1" d="M78.2,30.47c-1.02-.46-1.86-3.6-2.75-3.51-1.66.76-1,2.47-1.19,3.08-.3.72-2.35.62-2.37.11l-.25-5.92-.19-4.83,5.41-.28c1.99-.1,3.14,1.13,3.57,2.64.66,2.28-3.36,5.1-.8,6.41.64.33.95.9.97,1.22.04.48-.82,1.79-2.41,1.08ZM77.35,22.67c0-.84-.68-1.53-1.53-1.53s-1.53.68-1.53,1.53.68,1.53,1.53,1.53,1.53-.68,1.53-1.53Z"/>
            <path class="cls-1" d="M158.59,26.45c-1.46.9-4.94,1.07-6.98-1.26-.28-.31-.26-1.32-.03-1.65.87-1.23,2.72.44,3.88.8.65.21,1.56-.59,1.36-1.11-.77-1.99-3.82-.84-5.18-2.62-.48-.63-.86-2.33-.11-3.43,1.43-2.11,4.97-2.59,7.12-1.14.64.43.99,1,1.01,1.33.03.36-.43.97-.91,1.1-1.42.35-1.84-.08-2.77-.86-.77-.64-1.89.12-1.95.7-.15,1.53,3.85,1.25,5.16,2.43,1.44,1.3,1.1,4.66-.6,5.7Z"/>
            <path class="cls-1" d="M214.36,21.59c-1.44,3.17-5.74,3.69-8.69,1.46-.32-.24-.42-1.15-.21-1.86,2.7-1.01,3.95.91,4.97.7.55-.11.9-.95.49-1.46-.48-.6-2.47-.44-5-1.9-1.04-.6-1.4-3.83-.02-4.68,2.38-1.48,8.01-1.07,7.66,1.43-.31,2.18-2.52-.73-5.47.44,1.34,2.1,2.86,2,4.5,2.47,1.14.33,2.33,2.16,1.76,3.4Z"/>
            <path class="cls-1" d="M269.54,16.9c-.77.48-2.29.2-4.36.78.16,1.88,1.22,2.38,3.16,1.98,2.2-.45,2.35,2.62.11,2.36l-5.99.3-.23-11.33,7.43-.1c.77,3.62-4.79.45-3.82,4.24,1.11-.37,3.11-.46,3.7,1.76Z"/>
            <path class="cls-1" d="M244.12,19.29c-1.4,1.64-.63,3.08-.63,3.6l-3.32-.1.16-4.89-.13-5.97c2.48-.18,4.99-.52,7.51.48,1.8.71,1.92,4.28.52,5.59-1.03.96-3.22.97-4.1,1.29ZM243,13.95v2.81s3.01.01,3.01.01v-2.81s-3.01-.01-3.01-.01Z"/>
            <path class="cls-1" d="M195.17,19.89c1.39,1.84.62,3.54-.94,4.35-1.84.95-4.65,1.02-6.21-.29-.93-.78-.21-2.07.47-2.08,1.34-.02,2.47,1.54,3.91,1.04.59-.21.91-1.76-.31-2.15l-3.87-1.23c-1.74-.55-1.76-3.46-.32-4.48,2.28-1.61,4.85-1.51,6.84-.01.8.6.92,1.63.53,1.77-1.61.57-2.78-.01-4-.61-2.07-.45-1.49,2.73.4,1.67,1.37.44,2.79,1.12,3.5,2.05Z"/>
            <path class="cls-1" d="M255.32,17.94c0,3.49,5.2.63,4.54,4.29l-7.59.2-.14-10.73c-.01-.9,3.19-.67,3.19.24v6.01Z"/>
            <rect class="cls-1" x="180.3" y="14.23" width="3.21" height="11.47" transform="translate(-.17 1.58) rotate(-.5)"/>
            <path class="cls-1" d="M148.32,26.48c-1.05.64-1.53.94-1.84,1.02s-1.22-.26-1.23-.88l-.18-10.56c1.07-.2,1.71-.17,3.25-.04v10.45Z"/>
            <path class="cls-1" d="M5.22,27.61c-1.53.19-4.71.45-5.22-.55-.18-2.75,7.24-2.97,12.55-2.06.15,1.33-.44,1.77-1.54,1.9l-5.79.7Z"/>
            <rect class="cls-1" x="217.3" y="12.82" width="3.14" height="11.05" transform="translate(-.14 1.72) rotate(-.45)"/>
            <path class="cls-1" d="M14.2,17.38c-2.35,1.62-4.38-1.26-7.42-1.73-.72-.11-1.75-1.54-2.7-1.97l-1.66-.74c-.38-.17-.64-1.64-.19-1.82,2.1-.86,3.98.63,5.62,1.78l6.35,4.47Z"/>
            <path class="cls-1" d="M18.86,10.59c.23.86-1.95,1.16-2.08.65-.62-2.38-2.4-3.22-3.3-4.7l-1.11-1.82c-.26-4.25,5,.31,6.49,5.87Z"/>
            <path class="cls-1" d="M11.82,34.13c-1.11.67-1.95.86-2.37.73-.47-.15-.79-.93-.51-1.47s2-.31,3.49-2.51c.89.62,1.15,2.67-.61,3.26Z"/>
          </g>
          <g>
            <path class="cls-2" d="M164.93,188.13c-1.06.04-3.69-.25-3.84-1.13l-.4-13.88-.5-21.24-.58-19.7-.38-12.33-.6-30.66-.41-10.33-.24-23.88c0-.71.93-1.62,1.35-1.64l36.35-1.82c1.77-.09,5.06-.84,5.61,1.72,1.01,4.73.34,9.71.42,14.62l.56,36.69.41,8.35.61,35.65.4,19.32.37,16.03c.03,1.32-.79,2.74-2.23,2.79l-12.58.49-24.31.94Z"/>
            <g>
              <path class="cls-2" d="M284.9,137.09c-.63.03-2.22-.33-2.24-1.02l-.44-11.21-.17-14.01c-.03-2.14,3.33-2.24,4.75-2.29l11.19-.39,37.95-1.59,8.78-.27c.5-.02,1.38.84,1.37,1.54l-.27,23.03-1.53,7.27c-2.45,11.68-9.46,25.33-19.33,32.64-1.97,1.46-3.66,3.15-5.87,4.26l-13.22,6.6c-16.43,5.36-33.68,4.97-50.1.63l-2.51-.66c-1.13-1.6-2.89-1.75-4.39-2.6l-2.58-1.45c-5.84-3.29-11.11-7.29-15.33-12.68-6.23-7.95-11.38-20.87-12.39-30.7l-.84-8.24c-.57-5.57-.4-10.97-.02-16.37,1.18-17.02,8.69-36.75,21.89-47.13,2.95-2.32,6-5.21,9.1-6.86l5.25-2.79,6.04-2.95c10.29-3.59,21.01-6,31.94-4.68l11.3,1.37,7.99,2.03c2.56.65,4.48,1.94,6.75,3.31l7.58,4.57c7.87,4.75,17.46,18.91,18.4,29.55-.76,1.51-4.19,1.64-5.56,2.05l-2.28.68-4.15.78-15.98,3.55-3.96.95c-3.65.88-6.72,1.92-7.42,1.73-.56-.15-1.27-.82-1.66-1.88l-1.33-3.7-1.56-2.37c-2.4-3.65-5.73-6.41-9.8-7.41-10.32-2.53-21.09,1.92-24.87,12.05-4.52,12.09-3.56,30.65-1.06,44.08.66,3.54,2.51,6.5,4.58,9.41,5.39,7.57,19.05,8.47,26.14,3.92,4.38-2.81,9.42-8.05,9.51-13.31-2.43-1.26-4.98-.2-7.49-.08l-12.16.62ZM322.87,118.57c-2.35-.15-3.44-.57-5.74.29,1.8,1.83,3.42,1.94,6.09,2,.6-.26.86-1.82-.35-2.29ZM327.93,118.86c-.87-.27-1.77-.08-2.07.97-.42,1.48.64,2.52,1.84,1.94.52-.52.34-1.52.25-1.89.34.11,1.43.41,1.96-.51.81-1.4-1.68-2.58-1.99-.52ZM241.93,124.9c.34-1.03-.04-1.71-.46-2.04-.44-.34-1.58-.11-1.48.99-.34,1.03.04,1.71.46,2.04.44.34,1.58.11,1.48-.99Z"/>
              <path class="cls-1" d="M327.93,118.86c.01.33-.04.73.03,1.02.08.37.27,1.37-.25,1.89-1.2.59-2.26-.45-1.84-1.94.3-1.06,1.2-1.24,2.07-.97Z"/>
              <path class="cls-1" d="M241.93,124.9c.1,1.1-1.03,1.33-1.48.99-.42-.32-.79-1-.46-2.04-.1-1.1,1.03-1.33,1.48-.99.42.32.79,1,.46,2.04Z"/>
            </g>
            <g>
              <path class="cls-2" d="M90.69,191.22l-24.42,1.01-24.98.98-11.1.44c-.51-.15-1.8-1.54-1.81-2.07l-.2-11.72-.47-27.98-.61-24-.35-14.96-1.18-42.68-.13-9.06c-.04-2.56,3.89-2.23,7.51-2.4l15.01-.73,10.01-.38,14.99-.64,20.04-.93c9.67-.45,19.3,1.05,28.14,4.57,7.8,3.1,14.1,9.01,17.25,16.57,1.54,3.7,2.97,7.97,2.87,11.33l-.2,6.26c-.3,9.35-6.96,19.54-16.18,23.91-1.01.48-1.68.92-2.05,1.98,7.48.94,12.41,5.28,16.77,10.51,7.59,9.11,8.47,24.66,3.49,35.75-.61,1.35-1.05,2.84-2.15,3.94l-8.94,8.98c-.6.61-1.06,1.17-1.49,1.4l-8.54,4.55c-1.8.96-4.74,1.93-6.74,2.31l-13.29,2.5-11.25.54ZM53.79,69.03c-1.92-.81-2.18,1.08-1.86,1.39s1.07.72,2.54.54c2.39.31,1.88-3.2-.67-1.93ZM84.98,109.75l6.82-1.02c5.04-.76,6.98-5.15,7.29-9.86.4-6.26-3.62-11.39-10.18-11.24l-18.84.45c-3.3.08-2.57,2.96-2.36,7.76l.63,14.44c6.21-.51,11.22.27,16.66-.54ZM47.77,122.35c.05-.97-.72-1.12-1.39-1-1.07.19-1.13,2.56-.69,3.24.19.29,1.54.49,1.69.17s.32-1.05.39-2.41ZM102.36,152.16c1.04-3.64.22-7.66-1.97-10.88-3.8-5.6-11.86-4.02-19.7-3.7l-11.79.49.19,18.82c.02,1.54.04,2.57.84,4.55l20.89-.89c5.75-.25,10-3.02,11.54-8.38Z"/>
              <path class="cls-1" d="M53.79,69.03c2.55-1.27,3.06,2.24.67,1.93-1.47.18-2.22-.23-2.54-.54s-.06-2.2,1.86-1.39Z"/>
            </g>
          </g>
        </g>
      </g>
    </g>
  </g>
</svg>