<?xml version="1.0" encoding="UTF-8"?>
<svg version="1.1" xmlns="http://www.w3.org/2000/svg" width="180" height="162">
<path d="M0 0 C5.13950332 2.73377836 9.93739406 6.81365986 14 11 C14 11.66 14 12.32 14 13 C14.58177002 13.25869873 15.16354004 13.51739746 15.76293945 13.78393555 C23.61484836 18.0522274 28.61040467 26.38402592 33.3125 33.6875 C34.22225586 35.07291992 34.22225586 35.07291992 35.15039062 36.48632812 C42.78116956 48.14656128 42.78116956 48.14656128 43.625 51.4375 C42.75765735 54.99360487 41.12277471 56.50445893 38.2734375 58.734375 C34.8809917 60.62295308 31.59452369 60.8485803 27.77734375 61.3203125 C16.45367601 63.35787009 5.08468055 67.76529338 -5.2578125 72.73828125 C-8.84781615 74.39009205 -12.4988989 75.83456227 -16.1875 77.25 C-16.84145752 77.5085376 -17.49541504 77.7670752 -18.16918945 78.03344727 C-22.79371254 79.7821479 -27.0499961 80.71220908 -32 81 C-34.85993478 79.23535939 -36.49782849 78.00434303 -38 75 C-38.47889521 69.8755853 -37.07912823 66.02693417 -35.03515625 61.42578125 C-34.72623444 60.70822662 -34.41731262 59.990672 -34.09902954 59.25137329 C-33.09747487 56.93363798 -32.08024272 54.62316652 -31.0625 52.3125 C-30.37208739 50.72174583 -29.68239184 49.13068025 -28.9934082 47.53930664 C-25.08337367 38.54610599 -21.11181931 29.57791879 -16.61547852 20.85864258 C-14.37412727 16.37873548 -13.28837385 12.16774853 -12.52148438 7.21362305 C-10.95270493 0.55438932 -6.17757193 -0.97540609 0 0 Z M3 12 C2.67 13.32 2.34 14.64 2 16 C2.54527344 16.4125 3.09054688 16.825 3.65234375 17.25 C9.32913471 21.59735444 14.7128791 26.18784505 20 31 C20.33 30.34 20.66 29.68 21 29 C16.25902176 22.73333461 11.46710248 16.5846595 5 12 C4.34 12 3.68 12 3 12 Z M6 32.9375 C5.01 33.9584375 5.01 33.9584375 4 35 C1.19084526 36.40457737 -0.88810534 36.24895157 -4 36 C-6.375 34.5 -6.375 34.5 -8 33 C-8.67119549 34.4562545 -9.33681807 35.91507867 -10 37.375 C-10.37125 38.18710938 -10.7425 38.99921875 -11.125 39.8359375 C-12.12495013 41.91998433 -12.12495013 41.91998433 -12 44 C-10.1746875 43.9071875 -10.1746875 43.9071875 -8.3125 43.8125 C-4.41750797 43.80559399 -2.12309875 44.53937675 1 47 C2.41000664 49.82001327 2.24548451 51.87007255 2 55 C0.63676551 58.15696409 -0.35057585 59.61385591 -3.3125 61.375 C-6.70645086 62.1642909 -8.65664621 62.02347565 -12 61 C-14.1983217 59.47769978 -16.03047876 57.82884115 -18 56 C-20.43425238 60.96993194 -21.34615998 64.34605369 -21 70 C-13.99815025 67.72657783 -7.1274213 65.18566093 -0.25 62.5625 C8.0915616 59.4031463 16.40379749 56.4008925 25 54 C24.34 52.35 23.68 50.7 23 49 C21.948125 49.9590625 21.948125 49.9590625 20.875 50.9375 C17.71306093 53.20584759 15.84635598 53.75448792 12 54 C10.65875558 53.70007951 9.32287485 53.37268087 8 53 C5.68241758 45.8032967 5.68241758 45.8032967 7.0625 42.3125 C9.24002468 39.71351894 11.53719484 37.32968056 14 35 C13.34 35 12.68 35 12 35 C11.34 33.68 10.68 32.36 10 31 C7.77531613 30.76806826 7.77531613 30.76806826 6 32.9375 Z M29 41 C30 43 30 43 30 43 Z M30 43 C30.33 43.99 30.66 44.98 31 46 C31 45.01 31 44.02 31 43 C30.67 43 30.34 43 30 43 Z " fill="#3A241C" transform="translate(86,43)"/>
<path d="M0 0 C14.48022335 12.44971044 22.60310101 27.63431636 24.12109375 46.74609375 C24.5208371 62.90414094 18.90496666 77.21840105 8.8828125 89.74609375 C8.2228125 89.74609375 7.5628125 89.74609375 6.8828125 89.74609375 C6.8828125 90.40609375 6.8828125 91.06609375 6.8828125 91.74609375 C6.2228125 91.74609375 5.5628125 91.74609375 4.8828125 91.74609375 C4.8828125 92.40609375 4.8828125 93.06609375 4.8828125 93.74609375 C0.05481797 98.70819924 -6.06590559 101.96612446 -12.1796875 105.05859375 C-12.8396875 105.39584473 -13.4996875 105.7330957 -14.1796875 106.08056641 C-28.20912224 112.95290585 -45.50055109 112.88777978 -60.171875 107.9453125 C-66.9406804 105.18931348 -72.63983449 101.56279496 -78.390625 97.078125 C-79.91686353 95.90064233 -81.51327821 94.81536661 -83.1171875 93.74609375 C-83.1171875 93.08609375 -83.1171875 92.42609375 -83.1171875 91.74609375 C-83.7771875 91.74609375 -84.4371875 91.74609375 -85.1171875 91.74609375 C-96.39773036 79.60545084 -101.47028478 64.05998176 -101.1171875 47.74609375 C-99.98746259 31.0609259 -93.76020551 15.12900944 -80.97265625 3.85546875 C-55.93834581 -16.80276537 -26.86567981 -19.42543515 0 0 Z M-79.4921875 10.87109375 C-90.51726878 24.50425878 -95.50619057 40.14648468 -93.75 57.6328125 C-92.19032878 69.33578101 -86.01932867 81.86342069 -77.1171875 89.74609375 C-76.4571875 89.74609375 -75.7971875 89.74609375 -75.1171875 89.74609375 C-75.1171875 90.40609375 -75.1171875 91.06609375 -75.1171875 91.74609375 C-61.39746313 102.12009156 -46.15991804 105.94178296 -29.1171875 103.74609375 C-13.38816738 100.36914762 -0.61541434 90.46693327 8.8828125 77.74609375 C15.94619925 65.15704321 17.65024129 53.93908254 15.8828125 39.74609375 C15.76679688 38.6065625 15.65078125 37.46703125 15.53125 36.29296875 C14.81956327 32.40012809 13.54290954 29.36374084 11.8203125 25.80859375 C10.99853516 24.09349609 10.99853516 24.09349609 10.16015625 22.34375 C9.73863281 21.48652344 9.31710938 20.62929688 8.8828125 19.74609375 C8.2228125 19.74609375 7.5628125 19.74609375 6.8828125 19.74609375 C6.5940625 18.98296875 6.3053125 18.21984375 6.0078125 17.43359375 C4.92012237 14.59580067 4.92012237 14.59580067 2.8828125 11.74609375 C2.2228125 11.74609375 1.5628125 11.74609375 0.8828125 11.74609375 C0.8828125 11.08609375 0.8828125 10.42609375 0.8828125 9.74609375 C0.2228125 9.74609375 -0.4371875 9.74609375 -1.1171875 9.74609375 C-1.1171875 9.08609375 -1.1171875 8.42609375 -1.1171875 7.74609375 C-13.45178034 -3.08760837 -28.99537616 -7.33879827 -45.07421875 -6.43603516 C-58.21507374 -5.26453924 -70.38336932 1.45983434 -79.4921875 10.87109375 Z " fill="#E25526" transform="translate(125.1171875,36.25390625)"/>
<path d="M0 0 C1.32 0 2.64 0 4 0 C4 0.66 4 1.32 4 2 C5.32 2 6.64 2 8 2 C8 2.66 8 3.32 8 4 C9.32 4.33 10.64 4.66 12 5 C11.525625 5.433125 11.05125 5.86625 10.5625 6.3125 C8.76313043 8.02309613 8.76313043 8.02309613 8 11 C8.54914063 11.24234375 9.09828125 11.4846875 9.6640625 11.734375 C16.83569291 15.62000753 23.61468093 21.88693511 29 28 C29 28.99 29 29.98 29 31 C29.99 31.33 30.98 31.66 32 32 C33.53515625 34.03125 33.53515625 34.03125 35.0625 36.5 C36.98393567 39.84055125 36.98393567 39.84055125 40 42 C40 42.66 40 43.32 40 44 C40.66 44 41.32 44 42 44 C42 45.98 42 47.96 42 50 C40.23050905 50.10815225 38.45912513 50.18566083 36.6875 50.25 C35.70136719 50.29640625 34.71523437 50.3428125 33.69921875 50.390625 C31 50 31 50 29.14453125 47.984375 C28.76683594 47.32953125 28.38914063 46.6746875 28 46 C27.195625 46.7115625 27.195625 46.7115625 26.375 47.4375 C23.49356559 49.33318053 21.43100266 49.78556233 18 50 C14.7542891 49.16538863 14.03612239 48.0529795 12.125 45.25 C11 42 11 42 11.4375 38.9375 C13.43277993 35.18637373 15.59886518 33.51388226 19 31 C17.35 29.35 15.7 27.7 14 26 C13.7525 26.61875 13.505 27.2375 13.25 27.875 C11.72778828 30.46275992 10.83222025 31.05592658 8 32 C4.0300247 32.33083127 1.41205596 32.09972674 -2 30 C-2.99 32.31 -3.98 34.62 -5 37 C-6.65 36.67 -8.3 36.34 -10 36 C-10 36.66 -10 37.32 -10 38 C-10.66 38 -11.32 38 -12 38 C-12 39.98 -12 41.96 -12 44 C-12.66 44 -13.32 44 -14 44 C-14 45.32 -14 46.64 -14 48 C-14.66 48 -15.32 48 -16 48 C-16 49.32 -16 50.64 -16 52 C-16.66 52 -17.32 52 -18 52 C-18 53.32 -18 54.64 -18 56 C-18.66 56 -19.32 56 -20 56 C-20 60.62 -20 65.24 -20 70 C-21.32 70 -22.64 70 -24 70 C-24 68.68 -24 67.36 -24 66 C-24.66 66 -25.32 66 -26 66 C-26 64.68 -26 63.36 -26 62 C-25.34 62 -24.68 62 -24 62 C-24 60.68 -24 59.36 -24 58 C-23.34 58 -22.68 58 -22 58 C-22 56.02 -22 54.04 -22 52 C-21.34 52 -20.68 52 -20 52 C-20 50.68 -20 49.36 -20 48 C-19.34 48 -18.68 48 -18 48 C-18 46.68 -18 45.36 -18 44 C-17.34 44 -16.68 44 -16 44 C-16 42.68 -16 41.36 -16 40 C-15.34 40 -14.68 40 -14 40 C-14 38.02 -14 36.04 -14 34 C-13.34 34 -12.68 34 -12 34 C-12 32.68 -12 31.36 -12 30 C-11.34 30 -10.68 30 -10 30 C-10 28.68 -10 27.36 -10 26 C-9.34 26 -8.68 26 -8 26 C-8 24.02 -8 22.04 -8 20 C-7.34 20 -6.68 20 -6 20 C-6 18.68 -6 17.36 -6 16 C-5.34 16 -4.68 16 -4 16 C-4 14.68 -4 13.36 -4 12 C-3.34 12 -2.68 12 -2 12 C-2 11.34 -2 10.68 -2 10 C-1.34 10 -0.68 10 0 10 C0 8.68 0 7.36 0 6 C-0.66 6 -1.32 6 -2 6 C-2 4.68 -2 3.36 -2 2 C-1.34 2 -0.68 2 0 2 C0 1.34 0 0.68 0 0 Z " fill="#4A1813" transform="translate(80,48)"/>
<path d="M0 0 C1.11906738 -0.02634521 1.11906738 -0.02634521 2.26074219 -0.05322266 C6.75193561 -0.04810274 7.74354049 -0.00645951 11.0625 3.3125 C3.1425 3.3125 -4.7775 3.3125 -12.9375 3.3125 C-12.9375 3.9725 -12.9375 4.6325 -12.9375 5.3125 C-15.5775 5.3125 -18.2175 5.3125 -20.9375 5.3125 C-20.9375 5.9725 -20.9375 6.6325 -20.9375 7.3125 C-22.2575 7.3125 -23.5775 7.3125 -24.9375 7.3125 C-24.9375 7.9725 -24.9375 8.6325 -24.9375 9.3125 C-26.2575 9.3125 -27.5775 9.3125 -28.9375 9.3125 C-28.9375 9.9725 -28.9375 10.6325 -28.9375 11.3125 C-29.5975 11.3125 -30.2575 11.3125 -30.9375 11.3125 C-30.9375 11.9725 -30.9375 12.6325 -30.9375 13.3125 C-32.2575 13.3125 -33.5775 13.3125 -34.9375 13.3125 C-34.9375 13.9725 -34.9375 14.6325 -34.9375 15.3125 C-34.2775 15.6425 -33.6175 15.9725 -32.9375 16.3125 C-34.02150307 19.5645092 -34.45158787 19.89236731 -37.0625 21.8125 C-46.39249825 29.55563379 -52.96293323 43.26568701 -54.71484375 55.171875 C-55.87781006 71.57582079 -52.30506972 86.15535114 -41.9375 99.3125 C-40.27340231 100.64903823 -38.60723059 101.98300561 -36.9375 103.3125 C-36.9375 103.9725 -36.9375 104.6325 -36.9375 105.3125 C-36.2775 105.539375 -35.6175 105.76625 -34.9375 106 C-31.03007775 107.70949723 -27.41328462 109.83718936 -23.9375 112.3125 C-23.9375 112.6425 -23.9375 112.9725 -23.9375 113.3125 C-25.5875 113.3125 -27.2375 113.3125 -28.9375 113.3125 C-28.9375 113.9725 -28.9375 114.6325 -28.9375 115.3125 C-28.2775 115.3125 -27.6175 115.3125 -26.9375 115.3125 C-26.9375 115.9725 -26.9375 116.6325 -26.9375 117.3125 C-25.6175 117.3125 -24.2975 117.3125 -22.9375 117.3125 C-22.9375 118.3025 -22.9375 119.2925 -22.9375 120.3125 C-27.25056595 119.02937876 -30.73333914 117.39145544 -34.5 114.9375 C-35.86318359 114.05964844 -35.86318359 114.05964844 -37.25390625 113.1640625 C-39.93151495 111.31662942 -42.49310558 109.46073814 -44.9375 107.3125 C-44.9375 106.6525 -44.9375 105.9925 -44.9375 105.3125 C-45.5975 105.3125 -46.2575 105.3125 -46.9375 105.3125 C-58.21804286 93.17185709 -63.29059728 77.62638801 -62.9375 61.3125 C-61.80777509 44.62733215 -55.58051801 28.69541569 -42.79296875 17.421875 C-29.3619712 6.33865812 -17.46931495 0.22510102 0 0 Z " fill="#FB6B22" transform="translate(86.9375,22.6875)"/>
<path d="M0 0 C15.97414739 1.53597571 29.7365199 11.16198323 39.71875 23.22265625 C47.98852567 33.73745001 52.64990036 45.47342283 53 59 C52.01 59.495 52.01 59.495 51 60 C50.53101037 62.8159849 50.53101037 62.8159849 50.375 66.0625 C50.30023438 67.16722656 50.22546875 68.27195312 50.1484375 69.41015625 C50.07496094 70.69212891 50.07496094 70.69212891 50 72 C49.34 72 48.68 72 48 72 C47.95101562 70.85660156 47.90203125 69.71320313 47.8515625 68.53515625 C47.77654811 67.04424527 47.70099972 65.55336108 47.625 64.0625 C47.5940625 63.30775391 47.563125 62.55300781 47.53125 61.77539062 C47.4273685 59.84492605 47.22104386 57.92057919 47 56 C46.34 55.67 45.68 55.34 45 55 C44.54296875 53.1015625 44.54296875 53.1015625 44.1875 50.625 C43.25830623 45.3822319 41.36305816 41.01038424 39.0234375 36.25 C38 34 38 34 38 32 C37.34 32 36.68 32 36 32 C32 26.58823529 32 26.58823529 32 24 C31.34 24 30.68 24 30 24 C30 23.34 30 22.68 30 22 C29.34 22 28.68 22 28 22 C28 21.34 28 20.68 28 20 C27.42765625 19.72800781 26.8553125 19.45601562 26.265625 19.17578125 C23.9710259 17.98496344 21.90412416 16.61479555 19.75 15.1875 C6.84695049 7.48729303 -7.08113675 4.90962699 -21.8359375 7.734375 C-28.76050578 9.53564862 -34.06955602 12.08366907 -40 16 C-40.99 15.67 -41.98 15.34 -43 15 C-43.33 14.01 -43.66 13.02 -44 12 C-42.68 12 -41.36 12 -40 12 C-40 11.34 -40 10.68 -40 10 C-39.34 10 -38.68 10 -38 10 C-38 9.34 -38 8.68 -38 8 C-36.68 8 -35.36 8 -34 8 C-34 7.34 -34 6.68 -34 6 C-32.68 6 -31.36 6 -30 6 C-30 5.34 -30 4.68 -30 4 C-27.36 4 -24.72 4 -22 4 C-22 3.34 -22 2.68 -22 2 C-14.74 1.67 -7.48 1.34 0 1 C0 0.67 0 0.34 0 0 Z " fill="#F7581F" transform="translate(96,24)"/>
<path d="M0 0 C1.32 0.33 2.64 0.66 4 1 C4 1.66 4 2.32 4 3 C4.66 2.67 5.32 2.34 6 2 C11.26883876 1.40126832 13.8846468 2.74599979 18 6 C19.43304064 8.86608129 19.30644155 10.81300783 19 14 C17.2434139 17.38305471 15.90079501 19.45478197 12.625 21.4375 C9.28691063 22.15280486 7.26953662 22.02173019 4 21 C1.125 18.4375 1.125 18.4375 -1 16 C-3.44697666 20.36200187 -4.50269348 24.02693484 -5 29 C-4.37351562 28.71125 -3.74703125 28.4225 -3.1015625 28.125 C-2.28429687 27.75375 -1.46703125 27.3825 -0.625 27 C0.18710938 26.62875 0.99921875 26.2575 1.8359375 25.875 C4 25 4 25 6 25 C6 25.66 6 26.32 6 27 C7.98 27.33 9.96 27.66 12 28 C11.72753906 29.89794922 11.72753906 29.89794922 11 32 C8.2222058 33.24583474 5.63722163 34.22304151 2.75 35.125 C1.2237249 35.62689485 -0.30232268 36.1294822 -1.828125 36.6328125 C-2.55265869 36.86508545 -3.27719238 37.0973584 -4.02368164 37.33666992 C-5.64909249 37.88222166 -7.24294488 38.52090221 -8.82421875 39.18359375 C-12.20657697 40.45273714 -14.5625697 39.93748099 -18 39 C-21.08161282 36.23445003 -21.93702206 34.83445768 -22.25 30.6875 C-22.1675 29.800625 -22.085 28.91375 -22 28 C-20.68 27.34 -19.36 26.68 -18 26 C-18 29.3 -18 32.6 -18 36 C-17.34 36 -16.68 36 -16 36 C-16 34.02 -16 32.04 -16 30 C-15.34 30 -14.68 30 -14 30 C-14 31.32 -14 32.64 -14 34 C-12.68 34 -11.36 34 -10 34 C-10 29.38 -10 24.76 -10 20 C-9.34 20 -8.68 20 -8 20 C-8 18.68 -8 17.36 -8 16 C-7.34 16 -6.68 16 -6 16 C-6 14.68 -6 13.36 -6 12 C-5.34 12 -4.68 12 -4 12 C-4 10.68 -4 9.36 -4 8 C-3.34 8 -2.68 8 -2 8 C-2 6.02 -2 4.04 -2 2 C-1.34 2 -0.68 2 0 2 C0 1.34 0 0.68 0 0 Z " fill="#462216" transform="translate(70,84)"/>
<path d="M0 0 C5.57226823 0.13590898 7.96714132 2.43410481 11.6796875 6.2109375 C13 8 13 8 13 11 C13.99 11.33 14.98 11.66 16 12 C17.53515625 14.03125 17.53515625 14.03125 19.0625 16.5 C20.98393567 19.84055125 20.98393567 19.84055125 24 22 C24 22.66 24 23.32 24 24 C24.66 24 25.32 24 26 24 C26 25.98 26 27.96 26 30 C24.23050905 30.10815225 22.45912513 30.18566083 20.6875 30.25 C19.70136719 30.29640625 18.71523437 30.3428125 17.69921875 30.390625 C15 30 15 30 13.14453125 27.984375 C12.76683594 27.32953125 12.38914062 26.6746875 12 26 C11.46375 26.474375 10.9275 26.94875 10.375 27.4375 C7.49356559 29.33318053 5.43100266 29.78556233 2 30 C-1.2457109 29.16538863 -1.96387761 28.0529795 -3.875 25.25 C-5 22 -5 22 -4.5625 18.9375 C-2.56722007 15.18637373 -0.40113482 13.51388226 3 11 C2.6390625 10.51789063 2.278125 10.03578125 1.90625 9.5390625 C1.4421875 8.90742187 0.978125 8.27578125 0.5 7.625 C-0.19609375 6.68527344 -0.19609375 6.68527344 -0.90625 5.7265625 C-2 4 -2 4 -2 2 C-1.34 2 -0.68 2 0 2 C0 1.34 0 0.68 0 0 Z " fill="#CA3C11" transform="translate(96,68)"/>
<path d="M0 0 C0.74604492 -0.01756348 1.49208984 -0.03512695 2.26074219 -0.05322266 C6.75193561 -0.04810274 7.74354049 -0.00645951 11.0625 3.3125 C3.1425 3.3125 -4.7775 3.3125 -12.9375 3.3125 C-12.9375 3.9725 -12.9375 4.6325 -12.9375 5.3125 C-15.5775 5.3125 -18.2175 5.3125 -20.9375 5.3125 C-20.9375 5.9725 -20.9375 6.6325 -20.9375 7.3125 C-22.2575 7.3125 -23.5775 7.3125 -24.9375 7.3125 C-24.9375 7.9725 -24.9375 8.6325 -24.9375 9.3125 C-26.2575 9.3125 -27.5775 9.3125 -28.9375 9.3125 C-28.9375 9.9725 -28.9375 10.6325 -28.9375 11.3125 C-29.5975 11.3125 -30.2575 11.3125 -30.9375 11.3125 C-30.9375 11.9725 -30.9375 12.6325 -30.9375 13.3125 C-32.2575 13.3125 -33.5775 13.3125 -34.9375 13.3125 C-34.9375 13.9725 -34.9375 14.6325 -34.9375 15.3125 C-34.2775 15.6425 -33.6175 15.9725 -32.9375 16.3125 C-34.02150307 19.5645092 -34.45158787 19.89236731 -37.0625 21.8125 C-46.41309025 29.57272346 -52.09743796 42.69406439 -54.9375 54.3125 C-55.5975 54.3125 -56.2575 54.3125 -56.9375 54.3125 C-56.9375 52.6625 -56.9375 51.0125 -56.9375 49.3125 C-57.5975 49.3125 -58.2575 49.3125 -58.9375 49.3125 C-58.9375 51.2925 -58.9375 53.2725 -58.9375 55.3125 C-59.9275 55.3125 -60.9175 55.3125 -61.9375 55.3125 C-60.85126539 40.91989148 -53.63534647 26.9805468 -42.79296875 17.421875 C-29.3619712 6.33865812 -17.46931495 0.22510102 0 0 Z " fill="#F89558" transform="translate(86.9375,22.6875)"/>
<path d="M0 0 C0.66 0 1.32 0 2 0 C2 1.98 2 3.96 2 6 C1.34 6 0.68 6 0 6 C0 7.32 0 8.64 0 10 C0.66 10 1.32 10 2 10 C2 9.34 2 8.68 2 8 C2.66 8 3.32 8 4 8 C4 7.34 4 6.68 4 6 C4.66 6 5.32 6 6 6 C6 5.34 6 4.68 6 4 C6.66 4 7.32 4 8 4 C8 4.66 8 5.32 8 6 C8.66 6 9.32 6 10 6 C10 6.66 10 7.32 10 8 C10.66 8 11.32 8 12 8 C12 8.66 12 9.32 12 10 C12.66 10 13.32 10 14 10 C14 11.32 14 12.64 14 14 C13.34 14 12.68 14 12 14 C12 14.66 12 15.32 12 16 C10.02 16 8.04 16 6 16 C6 14.68 6 13.36 6 12 C4.68 12 3.36 12 2 12 C2 13.32 2 14.64 2 16 C-0.16874252 15.49396008 -1.99967627 15.00016187 -4 14 C-4 15.32 -4 16.64 -4 18 C-4.66 18 -5.32 18 -6 18 C-6 19.98 -6 21.96 -6 24 C-6.66 24 -7.32 24 -8 24 C-8 25.32 -8 26.64 -8 28 C-8.66 28 -9.32 28 -10 28 C-10 29.98 -10 31.96 -10 34 C-10.66 34 -11.32 34 -12 34 C-12 35.32 -12 36.64 -12 38 C-12.66 38 -13.32 38 -14 38 C-14 39.32 -14 40.64 -14 42 C-14.66 42 -15.32 42 -16 42 C-16 43.32 -16 44.64 -16 46 C-16.66 46 -17.32 46 -18 46 C-18 50.62 -18 55.24 -18 60 C-19.32 60 -20.64 60 -22 60 C-22 58.68 -22 57.36 -22 56 C-22.66 56 -23.32 56 -24 56 C-24 54.68 -24 53.36 -24 52 C-23.34 52 -22.68 52 -22 52 C-22 50.68 -22 49.36 -22 48 C-21.34 48 -20.68 48 -20 48 C-20 46.02 -20 44.04 -20 42 C-19.34 42 -18.68 42 -18 42 C-18 40.68 -18 39.36 -18 38 C-17.34 38 -16.68 38 -16 38 C-16 36.68 -16 35.36 -16 34 C-15.34 34 -14.68 34 -14 34 C-14 32.68 -14 31.36 -14 30 C-13.34 30 -12.68 30 -12 30 C-12 28.02 -12 26.04 -12 24 C-11.34 24 -10.68 24 -10 24 C-10 22.68 -10 21.36 -10 20 C-9.34 20 -8.68 20 -8 20 C-8 18.68 -8 17.36 -8 16 C-7.34 16 -6.68 16 -6 16 C-6 14.02 -6 12.04 -6 10 C-5.34 10 -4.68 10 -4 10 C-4 8.68 -4 7.36 -4 6 C-3.34 6 -2.68 6 -2 6 C-2 4.68 -2 3.36 -2 2 C-1.34 2 -0.68 2 0 2 C0 1.34 0 0.68 0 0 Z " fill="#C68A60" transform="translate(78,58)"/>
<path d="M0 0 C0.99 0.495 0.99 0.495 2 1 C1.34 1.66 0.68 2.32 0 3 C0.99 3.495 0.99 3.495 2 4 C2 4.66 2 5.32 2 6 C1.34 6 0.68 6 0 6 C0 6.66 0 7.32 0 8 C-0.66 8 -1.32 8 -2 8 C-2 8.66 -2 9.32 -2 10 C-2.66 10 -3.32 10 -4 10 C-4 10.66 -4 11.32 -4 12 C-5.32 12 -6.64 12 -8 12 C-8 12.66 -8 13.32 -8 14 C-8.66 14 -9.32 14 -10 14 C-10 14.66 -10 15.32 -10 16 C-11.32 16 -12.64 16 -14 16 C-14 16.66 -14 17.32 -14 18 C-15.98 18 -17.96 18 -20 18 C-20 18.66 -20 19.32 -20 20 C-21.98 20 -23.96 20 -26 20 C-26 20.66 -26 21.32 -26 22 C-35.24 22 -44.48 22 -54 22 C-54 21.34 -54 20.68 -54 20 C-56.64 20.66 -59.28 21.32 -62 22 C-62 20.68 -62 19.36 -62 18 C-63.32 18 -64.64 18 -66 18 C-66 17.34 -66 16.68 -66 16 C-66.66 16 -67.32 16 -68 16 C-68 15.34 -68 14.68 -68 14 C-63.42315945 13.74573108 -60.04066607 13.87382229 -55.75 15.5 C-41.69216821 19.97687874 -26.88383342 17.55669474 -14 11 C-8.71320963 7.87231868 -4.27203292 4.40673666 0 0 Z " fill="#F84B0D" transform="translate(126,122)"/>
<path d="M0 0 C0.66 0 1.32 0 2 0 C2 1.98 2 3.96 2 6 C1.34 6 0.68 6 0 6 C0 7.32 0 8.64 0 10 C-0.66 10 -1.32 10 -2 10 C-2 11.98 -2 13.96 -2 16 C-2.66 16 -3.32 16 -4 16 C-4 17.32 -4 18.64 -4 20 C-4.66 20 -5.32 20 -6 20 C-6 21.32 -6 22.64 -6 24 C-6.66 24 -7.32 24 -8 24 C-8 25.98 -8 27.96 -8 30 C-8.66 30 -9.32 30 -10 30 C-10 31.32 -10 32.64 -10 34 C-10.66 34 -11.32 34 -12 34 C-12 35.32 -12 36.64 -12 38 C-12.66 38 -13.32 38 -14 38 C-14 39.32 -14 40.64 -14 42 C-14.66 42 -15.32 42 -16 42 C-16 43.98 -16 45.96 -16 48 C-16.66 48 -17.32 48 -18 48 C-18 49.32 -18 50.64 -18 52 C-18.66 52 -19.32 52 -20 52 C-20 55.3 -20 58.6 -20 62 C-20.66 62 -21.32 62 -22 62 C-22.07347656 61.04287109 -22.07347656 61.04287109 -22.1484375 60.06640625 C-22.26058594 58.82697266 -22.26058594 58.82697266 -22.375 57.5625 C-22.44460937 56.73878906 -22.51421875 55.91507813 -22.5859375 55.06640625 C-22.72257812 54.38449219 -22.85921875 53.70257813 -23 53 C-23.66 52.67 -24.32 52.34 -25 52 C-23.11883302 47.53714942 -21.23473722 43.07554991 -19.34814453 38.61499023 C-18.70935565 37.10359587 -18.07131028 35.591887 -17.43408203 34.07983398 C-13.45419318 24.63778272 -9.36841807 15.27048388 -5 6 C-4.34 6 -3.68 6 -3 6 C-2.67 5.34 -2.34 4.68 -2 4 C-1.34 4 -0.68 4 0 4 C0 2.68 0 1.36 0 0 Z " fill="#2B1911" transform="translate(74,58)"/>
<path d="M0 0 C0.66 0 1.32 0 2 0 C3.35439668 2.70879335 3.06501451 5.00933268 3 8 C7.571279 7.45144652 11.67435795 6.58255197 16 5 C16 5.66 16 6.32 16 7 C18.97 7.495 18.97 7.495 22 8 C21.72753906 9.89794922 21.72753906 9.89794922 21 12 C18.2222058 13.24583474 15.63722163 14.22304151 12.75 15.125 C11.2237249 15.62689485 9.69767732 16.1294822 8.171875 16.6328125 C7.08507446 16.98122192 7.08507446 16.98122192 5.97631836 17.33666992 C4.35090751 17.88222166 2.75705512 18.52090221 1.17578125 19.18359375 C-2.20657697 20.45273714 -4.5625697 19.93748099 -8 19 C-11.08161282 16.23445003 -11.93702206 14.83445768 -12.25 10.6875 C-12.1675 9.800625 -12.085 8.91375 -12 8 C-10.68 7.34 -9.36 6.68 -8 6 C-8 9.3 -8 12.6 -8 16 C-7.34 16 -6.68 16 -6 16 C-6 14.02 -6 12.04 -6 10 C-5.34 10 -4.68 10 -4 10 C-4 11.32 -4 12.64 -4 14 C-2.68 14 -1.36 14 0 14 C0 9.38 0 4.76 0 0 Z " fill="#34251D" transform="translate(60,104)"/>
<path d="M0 0 C0 0.66 0 1.32 0 2 C0.66 2 1.32 2 2 2 C2 2.66 2 3.32 2 4 C2.66 4 3.32 4 4 4 C4 4.66 4 5.32 4 6 C4.66 6 5.32 6 6 6 C6 6.66 6 7.32 6 8 C6.66 8 7.32 8 8 8 C8 9.32 8 10.64 8 12 C8.66 12 9.32 12 10 12 C10 12.66 10 13.32 10 14 C12.64 14 15.28 14 18 14 C18 14.66 18 15.32 18 16 C16.23050905 16.10815225 14.45912513 16.18566083 12.6875 16.25 C11.70136719 16.29640625 10.71523437 16.3428125 9.69921875 16.390625 C7 16 7 16 5.14453125 13.984375 C4.76683594 13.32953125 4.38914062 12.6746875 4 12 C3.46375 12.474375 2.9275 12.94875 2.375 13.4375 C-0.50643441 15.33318053 -2.56899734 15.78556233 -6 16 C-9.2457109 15.16538863 -9.96387761 14.0529795 -11.875 11.25 C-13 8 -13 8 -12.375 4.8125 C-9.14916073 -1.78580759 -6.90420906 -1.24502131 0 0 Z " fill="#992E12" transform="translate(104,82)"/>
<path d="M0 0 C0.99 0.33 1.98 0.66 3 1 C0.5551839 8.3344483 -8.52600281 12.00283307 -15.0625 15.3125 C-16.05262085 15.81849731 -16.05262085 15.81849731 -17.06274414 16.3347168 C-25.09807696 20.27032912 -32.40077561 21.36411075 -41.3125 21.3125 C-42.23442139 21.31121094 -43.15634277 21.30992187 -44.10620117 21.30859375 C-50.74289418 21.2149626 -56.77648636 20.44859553 -63 18 C-62.67 17.34 -62.34 16.68 -62 16 C-60.02 16 -58.04 16 -56 16 C-56 16.66 -56 17.32 -56 18 C-46.76 18 -37.52 18 -28 18 C-28 17.34 -28 16.68 -28 16 C-26.02 16 -24.04 16 -22 16 C-22 15.34 -22 14.68 -22 14 C-20.02 14 -18.04 14 -16 14 C-16 13.34 -16 12.68 -16 12 C-14.68 12 -13.36 12 -12 12 C-12 11.34 -12 10.68 -12 10 C-11.34 10 -10.68 10 -10 10 C-10 9.34 -10 8.68 -10 8 C-8.68 8 -7.36 8 -6 8 C-6 7.34 -6 6.68 -6 6 C-5.34 6 -4.68 6 -4 6 C-4 5.34 -4 4.68 -4 4 C-3.34 4 -2.68 4 -2 4 C-2 3.34 -2 2.68 -2 2 C-1.34 2 -0.68 2 0 2 C0 1.34 0 0.68 0 0 Z " fill="#F78A52" transform="translate(128,126)"/>
<path d="M0 0 C17.10066785 6.09365692 30.80292886 18.9418178 38.67578125 35.203125 C41.59708523 42.71218128 41.59708523 42.71218128 40.125 47 C39.135 46.505 39.135 46.505 38.125 46 C38.125 44.02 38.125 42.04 38.125 40 C37.465 40 36.805 40 36.125 40 C36.125 38.68 36.125 37.36 36.125 36 C35.465 36 34.805 36 34.125 36 C34.125 34.68 34.125 33.36 34.125 32 C33.465 32 32.805 32 32.125 32 C32.125 30.68 32.125 29.36 32.125 28 C31.465 28 30.805 28 30.125 28 C30.125 27.34 30.125 26.68 30.125 26 C29.465 26 28.805 26 28.125 26 C28.125 24.68 28.125 23.36 28.125 22 C27.465 22 26.805 22 26.125 22 C26.125 21.34 26.125 20.68 26.125 20 C25.465 20 24.805 20 24.125 20 C24.125 19.34 24.125 18.68 24.125 18 C23.465 18 22.805 18 22.125 18 C22.125 17.34 22.125 16.68 22.125 16 C21.465 16 20.805 16 20.125 16 C20.125 15.34 20.125 14.68 20.125 14 C19.465 14 18.805 14 18.125 14 C18.125 13.34 18.125 12.68 18.125 12 C16.805 12 15.485 12 14.125 12 C14.125 11.34 14.125 10.68 14.125 10 C13.465 10 12.805 10 12.125 10 C12.125 9.34 12.125 8.68 12.125 8 C10.805 8 9.485 8 8.125 8 C8.125 7.34 8.125 6.68 8.125 6 C6.805 6 5.485 6 4.125 6 C4.125 5.34 4.125 4.68 4.125 4 C2.805 4 1.485 4 0.125 4 C0.125 3.34 0.125 2.68 0.125 2 C-1.855 2 -3.835 2 -5.875 2 C-5.875 1.34 -5.875 0.68 -5.875 0 C-3.32579585 -1.27460208 -2.66884711 -0.86028771 0 0 Z " fill="#FB8C51" transform="translate(105.875,26)"/>
<path d="M0 0 C0.99 0 1.98 0 3 0 C3 1.98 3 3.96 3 6 C3.66 6 4.32 6 5 6 C5 7.98 5 9.96 5 12 C5.66 12 6.32 12 7 12 C7 13.32 7 14.64 7 16 C7.66 16 8.32 16 9 16 C9 17.32 9 18.64 9 20 C9.66 20 10.32 20 11 20 C11 21.32 11 22.64 11 24 C11.66 24 12.32 24 13 24 C13 24.66 13 25.32 13 26 C13.66 26 14.32 26 15 26 C15 26.66 15 27.32 15 28 C15.66 28 16.32 28 17 28 C17 28.66 17 29.32 17 30 C17.66 30 18.32 30 19 30 C19 30.66 19 31.32 19 32 C19.66 32 20.32 32 21 32 C21 32.66 21 33.32 21 34 C21.66 34 22.32 34 23 34 C23 34.66 23 35.32 23 36 C23.66 36 24.32 36 25 36 C25 36.66 25 37.32 25 38 C26.32 38 27.64 38 29 38 C29 38.66 29 39.32 29 40 C29.66 40 30.32 40 31 40 C31 40.66 31 41.32 31 42 C32.32 42 33.64 42 35 42 C35 42.66 35 43.32 35 44 C36.32 44 37.64 44 39 44 C39 44.99 39 45.98 39 47 C34.68693405 45.71687876 31.20416086 44.07895544 27.4375 41.625 C26.07431641 40.74714844 26.07431641 40.74714844 24.68359375 39.8515625 C22.00598505 38.00412942 19.44439442 36.14823814 17 34 C17 33.34 17 32.68 17 32 C16.34 32 15.68 32 15 32 C7.48514092 23.91216047 0 11.19685422 0 0 Z " fill="#F79857" transform="translate(25,96)"/>
<path d="M0 0 C1.98 0 3.96 0 6 0 C6 0.66 6 1.32 6 2 C11.28 2 16.56 2 22 2 C22 2.66 22 3.32 22 4 C20.29457031 4.03867187 20.29457031 4.03867187 18.5546875 4.078125 C4.91000545 4.52335065 -6.38760033 6.33143418 -18 14 C-18.99 13.67 -19.98 13.34 -21 13 C-21.33 12.01 -21.66 11.02 -22 10 C-20.68 10 -19.36 10 -18 10 C-18 9.34 -18 8.68 -18 8 C-17.34 8 -16.68 8 -16 8 C-16 7.34 -16 6.68 -16 6 C-14.68 6 -13.36 6 -12 6 C-12 5.34 -12 4.68 -12 4 C-10.68 4 -9.36 4 -8 4 C-8 3.34 -8 2.68 -8 2 C-5.36 2 -2.72 2 0 2 C0 1.34 0 0.68 0 0 Z " fill="#EF753A" transform="translate(74,26)"/>
<path d="M0 0 C0.66 0 1.32 0 2 0 C2 0.66 2 1.32 2 2 C4.97 2.495 4.97 2.495 8 3 C7.01 3.495 7.01 3.495 6 4 C6 4.66 6 5.32 6 6 C9.3 6 12.6 6 16 6 C16 7.98 16 9.96 16 12 C15.34 12 14.68 12 14 12 C14 12.66 14 13.32 14 14 C13.34 14 12.68 14 12 14 C12 14.66 12 15.32 12 16 C5.25 16.125 5.25 16.125 3 15 C2.59270772 12.67843403 2.25561323 10.3431213 2 8 C0.68 8 -0.64 8 -2 8 C-2 7.34 -2 6.68 -2 6 C-1.34 6 -0.68 6 0 6 C0 4.02 0 2.04 0 0 Z " fill="#6C3B22" transform="translate(68,86)"/>
<path d="M0 0 C0.66 0 1.32 0 2 0 C2 1.32 2 2.64 2 4 C2.66 4 3.32 4 4 4 C4 5.32 4 6.64 4 8 C4.66 8 5.32 8 6 8 C6 9.98 6 11.96 6 14 C7.32 14.33 8.64 14.66 10 15 C10.33 18.3 10.66 21.6 11 25 C10.34 25.33 9.68 25.66 9 26 C8.53101037 28.8159849 8.53101037 28.8159849 8.375 32.0625 C8.30023438 33.16722656 8.22546875 34.27195313 8.1484375 35.41015625 C8.09945312 36.26480469 8.05046875 37.11945313 8 38 C7.34 38 6.68 38 6 38 C5.95101562 36.85660156 5.90203125 35.71320313 5.8515625 34.53515625 C5.77654811 33.04424527 5.70099972 31.55336108 5.625 30.0625 C5.5940625 29.30775391 5.563125 28.55300781 5.53125 27.77539062 C5.4273685 25.84492605 5.22104386 23.92057919 5 22 C4.34 21.67 3.68 21.34 3 21 C2.47265625 19.03125 2.47265625 19.03125 2.0625 16.5 C1.15735705 11.47464637 -0.26293067 6.79431136 -2 2 C-1.34 1.34 -0.68 0.68 0 0 Z " fill="#D23110" transform="translate(138,58)"/>
<path d="M0 0 C4.62314699 -0.2568415 8.17674659 -0.07584205 12.5625 1.4375 C18.24218845 3.33072948 23.84936709 3.49239991 29.77734375 3.69140625 C33 4 33 4 36 6 C36 6.66 36 7.32 36 8 C28.74 8 21.48 8 14 8 C14 7.34 14 6.68 14 6 C11.36 6.66 8.72 7.32 6 8 C6 6.68 6 5.36 6 4 C4.68 4 3.36 4 2 4 C2 3.34 2 2.68 2 2 C1.34 2 0.68 2 0 2 C0 1.34 0 0.68 0 0 Z " fill="#953A11" transform="translate(58,136)"/>
<path d="M0 0 C7.36053072 6.69139156 12.41629137 15.25504437 17 24 C14.69 24.66 12.38 25.32 10 26 C9.34 25.01 8.68 24.02 8 23 C8.33 22.01 8.66 21.02 9 20 C8.67 19.67 8.34 19.34 8 19 C8 18.34 8 17.68 8 17 C7.34 17 6.68 17 6 17 C6 15.68 6 14.36 6 13 C5.34 13 4.68 13 4 13 C4 12.34 4 11.68 4 11 C3.34 11 2.68 11 2 11 C2 10.34 2 9.68 2 9 C1.34 9 0.68 9 0 9 C0 7.68 0 6.36 0 5 C-0.66 5 -1.32 5 -2 5 C-1.34 3.35 -0.68 1.7 0 0 Z " fill="#211812" transform="translate(108,63)"/>
<path d="M0 0 C1.32 0 2.64 0 4 0 C4 0.66 4 1.32 4 2 C5.32 2 6.64 2 8 2 C8 2.66 8 3.32 8 4 C9.32 4.33 10.64 4.66 12 5 C11.505 5.4125 11.01 5.825 10.5 6.25 C8.56613908 8.12202338 8.56613908 8.12202338 9 12 C7.35 12 5.7 12 4 12 C4 13.32 4 14.64 4 16 C3.34 16 2.68 16 2 16 C2 16.66 2 17.32 2 18 C1.34 18 0.68 18 0 18 C0 18.66 0 19.32 0 20 C-0.66 20 -1.32 20 -2 20 C-2 18.68 -2 17.36 -2 16 C-1.34 16 -0.68 16 0 16 C0 12.7 0 9.4 0 6 C-0.66 6 -1.32 6 -2 6 C-2 4.68 -2 3.36 -2 2 C-1.34 2 -0.68 2 0 2 C0 1.34 0 0.68 0 0 Z " fill="#9E3C20" transform="translate(80,48)"/>
<path d="M0 0 C0.33 0.66 0.66 1.32 1 2 C2.98 1.67 4.96 1.34 7 1 C8.67594122 3.44408094 9.88641803 5.55703033 10.625 8.4375 C9.73774281 12.07525447 7.61492791 13.58561692 4.82421875 15.9609375 C4.22222656 16.30382812 3.62023437 16.64671875 3 17 C2.01 16.67 1.02 16.34 0 16 C0.33 15.67 0.66 15.34 1 15 C-2.63 14.34 -6.26 13.68 -10 13 C-10 12.34 -10 11.68 -10 11 C-5.71 11.33 -1.42 11.66 3 12 C3 10.02 3 8.04 3 6 C2.34 6 1.68 6 1 6 C1 5.34 1 4.68 1 4 C0.34 3.67 -0.32 3.34 -1 3 C-0.67 2.01 -0.34 1.02 0 0 Z " fill="#301F18" transform="translate(119,86)"/>
<path d="M0 0 C3 2 3 2 3.43359375 3.85546875 C3.45852041 18.73668352 -1.93243595 33.04412147 -12 44 C-12.66 43.67 -13.32 43.34 -14 43 C-14 42.34 -14 41.68 -14 41 C-13.34 41 -12.68 41 -12 41 C-12 40.34 -12 39.68 -12 39 C-11.34 39 -10.68 39 -10 39 C-10 37.68 -10 36.36 -10 35 C-9.34 35 -8.68 35 -8 35 C-8 33.68 -8 32.36 -8 31 C-7.34 31 -6.68 31 -6 31 C-6 30.34 -6 29.68 -6 29 C-5.34 29 -4.68 29 -4 29 C-4 27.02 -4 25.04 -4 23 C-3.34 23 -2.68 23 -2 23 C-2 21.02 -2 19.04 -2 17 C-1.34 17 -0.68 17 0 17 C0 11.39 0 5.78 0 0 Z " fill="#E7774E" transform="translate(146,81)"/>
<path d="M0 0 C1.32 0.66 2.64 1.32 4 2 C3.5875 2.41507813 3.175 2.83015625 2.75 3.2578125 C-3.08884218 9.48764857 -6.96736133 16.54223706 -11 24 C-11.99 24 -12.98 24 -14 24 C-14 25.32 -14 26.64 -14 28 C-14.66 28 -15.32 28 -16 28 C-16 26.02 -16 24.04 -16 22 C-15.34 22 -14.68 22 -14 22 C-14 20.68 -14 19.36 -14 18 C-13.34 18 -12.68 18 -12 18 C-12 16.68 -12 15.36 -12 14 C-11.34 14 -10.68 14 -10 14 C-10 13.34 -10 12.68 -10 12 C-9.34 12 -8.68 12 -8 12 C-8 10.68 -8 9.36 -8 8 C-7.34 8 -6.68 8 -6 8 C-6 7.34 -6 6.68 -6 6 C-5.34 6 -4.68 6 -4 6 C-4 5.34 -4 4.68 -4 4 C-3.34 4 -2.68 4 -2 4 C-2 3.34 -2 2.68 -2 2 C-1.34 2 -0.68 2 0 2 C0 1.34 0 0.68 0 0 Z " fill="#F56525" transform="translate(46,42)"/>
<path d="M0 0 C0.66 0 1.32 0 2 0 C2 0.66 2 1.32 2 2 C2.66 2 3.32 2 4 2 C4 2.66 4 3.32 4 4 C3.34 4 2.68 4 2 4 C2 5.32 2 6.64 2 8 C1.34 8 0.68 8 0 8 C0 9.32 0 10.64 0 12 C-0.66 12 -1.32 12 -2 12 C-2 13.32 -2 14.64 -2 16 C-2.66 16 -3.32 16 -4 16 C-4 20.62 -4 25.24 -4 30 C-5.32 30 -6.64 30 -8 30 C-8 28.68 -8 27.36 -8 26 C-8.66 26 -9.32 26 -10 26 C-10 24.68 -10 23.36 -10 22 C-9.34 22 -8.68 22 -8 22 C-8 20.68 -8 19.36 -8 18 C-7.34 18 -6.68 18 -6 18 C-6 16.02 -6 14.04 -6 12 C-5.34 12 -4.68 12 -4 12 C-4 10.68 -4 9.36 -4 8 C-3.34 8 -2.68 8 -2 8 C-2 6.68 -2 5.36 -2 4 C-1.34 4 -0.68 4 0 4 C0 2.68 0 1.36 0 0 Z " fill="#DB9D61" transform="translate(64,88)"/>
<path d="M0 0 C0 0.66 0 1.32 0 2 C0.66 2 1.32 2 2 2 C2 2.66 2 3.32 2 4 C-0.64 4 -3.28 4 -6 4 C-6 4.66 -6 5.32 -6 6 C-6.66 6 -7.32 6 -8 6 C-8 6.66 -8 7.32 -8 8 C-7.34 8 -6.68 8 -6 8 C-6 9.32 -6 10.64 -6 12 C-4.68 12 -3.36 12 -2 12 C-1.67 12.99 -1.34 13.98 -1 15 C-3.63339607 15.73149891 -5.4561719 16.1439545 -8.125 15.4375 C-10.90893861 13.30314707 -11.85868634 11.29712835 -13 8 C-12.39458337 4.9123752 -11.4428291 2.76265011 -9.875 0.0625 C-6.65460596 -1.76238996 -3.5511919 -0.64037887 0 0 Z " fill="#5F3223" transform="translate(104,82)"/>
<path d="M0 0 C0.66 0 1.32 0 2 0 C2 1.65 2 3.3 2 5 C2.66 5 3.32 5 4 5 C4 9.95 4 14.9 4 20 C1.69 20 -0.62 20 -3 20 C-3.33 19.67 -3.66 19.34 -4 19 C-3.90982004 16.80949979 -3.75333792 14.621534 -3.5625 12.4375 C-3.46066406 11.23996094 -3.35882812 10.04242188 -3.25390625 8.80859375 C-3.17011719 7.88175781 -3.08632813 6.95492187 -3 6 C-2.01 6 -1.02 6 0 6 C0 4.02 0 2.04 0 0 Z " fill="#F75913" transform="translate(28,72)"/>
<path d="M0 0 C0 3.3 0 6.6 0 10 C0.66 10 1.32 10 2 10 C2 8.02 2 6.04 2 4 C2.66 4 3.32 4 4 4 C4 5.32 4 6.64 4 8 C5.98 8 7.96 8 10 8 C10 7.34 10 6.68 10 6 C11.98 6 13.96 6 16 6 C16 6.66 16 7.32 16 8 C14.68 8 13.36 8 12 8 C12 8.66 12 9.32 12 10 C11.01 10.495 11.01 10.495 10 11 C10 11.66 10 12.32 10 13 C2.7643956 14.47164835 2.7643956 14.47164835 -0.9375 12.1875 C-3.44445388 9.52860952 -3.94578234 8.65061197 -4.25 5 C-4.1675 4.01 -4.085 3.02 -4 2 C-1 0 -1 0 0 0 Z " fill="#4D2519" transform="translate(52,110)"/>
<path d="M0 0 C1.09731445 0.15662109 1.09731445 0.15662109 2.21679688 0.31640625 C4.0006207 0.57290379 5.78188297 0.84711259 7.5625 1.125 C5.08702831 4.83820753 3.9321129 4.80559958 -0.3125 5.75 C-1.36179687 5.98976563 -2.41109375 6.22953125 -3.4921875 6.4765625 C-4.46414062 6.69054687 -5.43609375 6.90453125 -6.4375 7.125 C-7.18773438 7.34800781 -7.93796875 7.57101563 -8.7109375 7.80078125 C-9.56558594 7.96126953 -9.56558594 7.96126953 -10.4375 8.125 C-12.1875 6.6875 -12.1875 6.6875 -13.4375 5.125 C-11.4575 5.125 -9.4775 5.125 -7.4375 5.125 C-7.4375 4.465 -7.4375 3.805 -7.4375 3.125 C-10.0775 3.125 -12.7175 3.125 -15.4375 3.125 C-15.4375 3.785 -15.4375 4.445 -15.4375 5.125 C-16.4275 4.795 -17.4175 4.465 -18.4375 4.125 C-13.86302011 -1.79491515 -6.5939336 -1.04972044 0 0 Z " fill="#423129" transform="translate(113.4375,98.875)"/>
<path d="M0 0 C1.11906738 -0.02634521 1.11906738 -0.02634521 2.26074219 -0.05322266 C6.75193561 -0.04810274 7.74354049 -0.00645951 11.0625 3.3125 C3.1425 3.3125 -4.7775 3.3125 -12.9375 3.3125 C-12.9375 3.9725 -12.9375 4.6325 -12.9375 5.3125 C-15.5775 5.3125 -18.2175 5.3125 -20.9375 5.3125 C-20.9375 5.9725 -20.9375 6.6325 -20.9375 7.3125 C-22.5875 6.9825 -24.2375 6.6525 -25.9375 6.3125 C-19.58308638 -0.04191362 -8.44828735 0.10886048 0 0 Z " fill="#FBA159" transform="translate(86.9375,22.6875)"/>
<path d="M0 0 C2.875 0.3125 2.875 0.3125 6 1 C6.66 1.99 7.32 2.98 8 4 C6.68 3.67 5.36 3.34 4 3 C4 3.99 4 4.98 4 6 C5.32 6 6.64 6 8 6 C8 6.66 8 7.32 8 8 C8.66 8 9.32 8 10 8 C10 8.66 10 9.32 10 10 C9.34 10 8.68 10 8 10 C8 11.32 8 12.64 8 14 C5.69 14 3.38 14 1 14 C1.66 13.01 2.32 12.02 3 11 C2.6390625 10.51789063 2.278125 10.03578125 1.90625 9.5390625 C1.4421875 8.90742187 0.978125 8.27578125 0.5 7.625 C0.0359375 6.99851562 -0.428125 6.37203125 -0.90625 5.7265625 C-2 4 -2 4 -2 2 C-1.34 2 -0.68 2 0 2 C0 1.34 0 0.68 0 0 Z " fill="#B84C25" transform="translate(96,68)"/>
<path d="M0 0 C0.66 0 1.32 0 2 0 C2 0.66 2 1.32 2 2 C2.66 2 3.32 2 4 2 C4 2.66 4 3.32 4 4 C4.66 4 5.32 4 6 4 C6 4.66 6 5.32 6 6 C6.66 6 7.32 6 8 6 C8 7.32 8 8.64 8 10 C7.34 10 6.68 10 6 10 C6 10.66 6 11.32 6 12 C4.02 12 2.04 12 0 12 C0 10.68 0 9.36 0 8 C-1.32 8 -2.64 8 -4 8 C-4 6.68 -4 5.36 -4 4 C-3.34 4 -2.68 4 -2 4 C-2 3.34 -2 2.68 -2 2 C-1.34 2 -0.68 2 0 2 C0 1.34 0 0.68 0 0 Z " fill="#E17A3D" transform="translate(84,62)"/>
<path d="M0 0 C0 0.99 0 1.98 0 3 C-1.32 3 -2.64 3 -4 3 C-4 3.66 -4 4.32 -4 5 C-5.32 5 -6.64 5 -8 5 C-8 6.32 -8 7.64 -8 9 C-9.98 9 -11.96 9 -14 9 C-14 9.66 -14 10.32 -14 11 C-15.98 11 -17.96 11 -20 11 C-20 10.34 -20 9.68 -20 9 C-21.32 8.67 -22.64 8.34 -24 8 C-22.783125 7.608125 -21.56625 7.21625 -20.3125 6.8125 C-15.03860729 5.06573299 -9.88606326 3.03552684 -4.72265625 0.98828125 C-2 0 -2 0 0 0 Z " fill="#F66A2E" transform="translate(114,133)"/>
<path d="M0 0 C2.64 0 5.28 0 8 0 C8 0.66 8 1.32 8 2 C6.02 2 4.04 2 2 2 C2 2.66 2 3.32 2 4 C0.68 4 -0.64 4 -2 4 C-2.020625 4.5775 -2.04125 5.155 -2.0625 5.75 C-3.61742252 9.48181404 -6.39538016 10.32198732 -10 12 C-10.99 11.67 -11.98 11.34 -13 11 C-13.33 10.01 -13.66 9.02 -14 8 C-12.68 8 -11.36 8 -10 8 C-10 7.34 -10 6.68 -10 6 C-9.34 6 -8.68 6 -8 6 C-8 5.34 -8 4.68 -8 4 C-6.68 4 -5.36 4 -4 4 C-4 3.34 -4 2.68 -4 2 C-2.68 2 -1.36 2 0 2 C0 1.34 0 0.68 0 0 Z " fill="#F84A0F" transform="translate(66,28)"/>
<path d="M0 0 C1.98 0 3.96 0 6 0 C6 0.66 6 1.32 6 2 C12.6 2 19.2 2 26 2 C26 2.99 26 3.98 26 5 C16.49232119 5.322092 8.09743079 5.23806859 -1 2 C-0.67 1.34 -0.34 0.68 0 0 Z " fill="#AE6F50" transform="translate(66,142)"/>
<path d="M0 0 C6.45016642 5.89729501 11.3911663 13.26633137 13 22 C12.5703125 24.265625 12.5703125 24.265625 12 26 C11.34 25.67 10.68 25.34 10 25 C10 23.02 10 21.04 10 19 C9.34 19 8.68 19 8 19 C8 17.68 8 16.36 8 15 C7.34 15 6.68 15 6 15 C6 13.68 6 12.36 6 11 C5.34 11 4.68 11 4 11 C4 9.68 4 8.36 4 7 C3.34 7 2.68 7 2 7 C2 6.34 2 5.68 2 5 C1.34 5 0.68 5 0 5 C0 3.35 0 1.7 0 0 Z " fill="#E07753" transform="translate(134,47)"/>
<path d="M0 0 C1.32 0 2.64 0 4 0 C4.1875 2.8125 4.1875 2.8125 4 6 C3.2884375 6.69609375 3.2884375 6.69609375 2.5625 7.40625 C0.58504229 9.42325686 0.33065159 10.93731077 -0.1875 13.6875 C-0.42533203 14.89986328 -0.42533203 14.89986328 -0.66796875 16.13671875 C-0.77753906 16.75160156 -0.88710937 17.36648437 -1 18 C-1.66 18 -2.32 18 -3 18 C-3.33 14.04 -3.66 10.08 -4 6 C-3.34 6 -2.68 6 -2 6 C-2 4.68 -2 3.36 -2 2 C-1.34 2 -0.68 2 0 2 C0 1.34 0 0.68 0 0 Z " fill="#271510" transform="translate(66,94)"/>
<path d="M0 0 C2.64 0 5.28 0 8 0 C8 1.98 8 3.96 8 6 C7.34 6 6.68 6 6 6 C6 6.66 6 7.32 6 8 C3.36 8 0.72 8 -2 8 C-2 6.02 -2 4.04 -2 2 C-1.34 2 -0.68 2 0 2 C0 1.34 0 0.68 0 0 Z " fill="#E46111" transform="translate(76,92)"/>
<path d="M0 0 C2.97 0.495 2.97 0.495 6 1 C5.01 1.495 5.01 1.495 4 2 C4 2.66 4 3.32 4 4 C5.32 4 6.64 4 8 4 C8 4.66 8 5.32 8 6 C4.1496895 8.56687367 2.41430237 7.83288724 -2 7 C-1.34 6.67 -0.68 6.34 0 6 C0 5.34 0 4.68 0 4 C-5.28 4 -10.56 4 -16 4 C-16 3.34 -16 2.68 -16 2 C-8.08 1.505 -8.08 1.505 0 1 C0 0.67 0 0.34 0 0 Z " fill="#E54F10" transform="translate(96,24)"/>
<path d="M0 0 C0.33 0.66 0.66 1.32 1 2 C1.66 2 2.32 2 3 2 C3 2.66 3 3.32 3 4 C3.66 4 4.32 4 5 4 C5 5.32 5 6.64 5 8 C5.66 8 6.32 8 7 8 C7 8.66 7 9.32 7 10 C7.66 10 8.32 10 9 10 C9 10.66 9 11.32 9 12 C9.66 12 10.32 12 11 12 C11 13.32 11 14.64 11 16 C11.66 16 12.32 16 13 16 C13 16.66 13 17.32 13 18 C13.66 18 14.32 18 15 18 C14.67 18.99 14.34 19.98 14 21 C8.13861386 17.67326733 8.13861386 17.67326733 6 15 C5.86207031 14.37996094 5.72414063 13.75992188 5.58203125 13.12109375 C4.75635832 10.11209779 2.98692033 8.18482987 1.05859375 5.78125 C0 4 0 4 0 0 Z " fill="#5A2718" transform="translate(103,64)"/>
<path d="M0 0 C5.73199571 1.46974249 10.33583399 4.44486902 15 8 C15 8.33 15 8.66 15 9 C13.35 9 11.7 9 10 9 C10 9.66 10 10.32 10 11 C9.34 11 8.68 11 8 11 C8 10.34 8 9.68 8 9 C7.34 9 6.68 9 6 9 C6 8.34 6 7.68 6 7 C4.68 7 3.36 7 2 7 C2 6.34 2 5.68 2 5 C1.34 5 0.68 5 0 5 C0 3.35 0 1.7 0 0 Z " fill="#FD7227" transform="translate(48,127)"/>
<path d="M0 0 C0 0.66 0 1.32 0 2 C0.66 2 1.32 2 2 2 C2 2.66 2 3.32 2 4 C2.66 4 3.32 4 4 4 C4 4.66 4 5.32 4 6 C4.66 6 5.32 6 6 6 C6 6.66 6 7.32 6 8 C6.66 8 7.32 8 8 8 C8 8.66 8 9.32 8 10 C8.66 10 9.32 10 10 10 C9.67 11.65 9.34 13.3 9 15 C4.82556637 11.49925018 0.6854506 8.02049157 -3 4 C-3 3.34 -3 2.68 -3 2 C-3.66 1.67 -4.32 1.34 -5 1 C-2 0 -2 0 0 0 Z " fill="#24150E" transform="translate(94,52)"/>
<path d="M0 0 C1.32 0 2.64 0 4 0 C4 0.66 4 1.32 4 2 C4.66 2 5.32 2 6 2 C6 2.66 6 3.32 6 4 C2.04 5.65 -1.92 7.3 -6 9 C-6 8.01 -6 7.02 -6 6 C-7.32 6 -8.64 6 -10 6 C-10 5.34 -10 4.68 -10 4 C-8.02 4 -6.04 4 -4 4 C-4 3.34 -4 2.68 -4 2 C-2.68 2 -1.36 2 0 2 C0 1.34 0 0.68 0 0 Z " fill="#1E1A16" transform="translate(88,106)"/>
<path d="M0 0 C1.98 0.66 3.96 1.32 6 2 C6 2.66 6 3.32 6 4 C5.34 4 4.68 4 4 4 C3.01 6.97 2.02 9.94 1 13 C-0.65 12.67 -2.3 12.34 -4 12 C-4 11.34 -4 10.68 -4 10 C-3.34 10 -2.68 10 -2 10 C-2 8.02 -2 6.04 -2 4 C-1.34 4 -0.68 4 0 4 C0 2.68 0 1.36 0 0 Z " fill="#A24F27" transform="translate(74,72)"/>
<path d="M0 0 C1.32 0.66 2.64 1.32 4 2 C3.54109375 2.51949219 3.0821875 3.03898437 2.609375 3.57421875 C-0.68382608 7.31712166 -3.92952189 11.06978801 -7 15 C-8 14 -8 14 -8.0625 10.9375 C-8.041875 9.968125 -8.02125 8.99875 -8 8 C-7.34 8 -6.68 8 -6 8 C-6 7.34 -6 6.68 -6 6 C-5.34 6 -4.68 6 -4 6 C-4 5.34 -4 4.68 -4 4 C-3.34 4 -2.68 4 -2 4 C-2 3.34 -2 2.68 -2 2 C-1.34 2 -0.68 2 0 2 C0 1.34 0 0.68 0 0 Z " fill="#F86F2E" transform="translate(46,42)"/>
<path d="M0 0 C0.99 0.33 1.98 0.66 3 1 C3 6.28 3 11.56 3 17 C3.66 17 4.32 17 5 17 C5 17.66 5 18.32 5 19 C3.68 19 2.36 19 1 19 C0.67 20.32 0.34 21.64 0 23 C0 15.41 0 7.82 0 0 Z " fill="#E65A2F" transform="translate(141,79)"/>
<path d="M0 0 C0.66 0 1.32 0 2 0 C2 1.32 2 2.64 2 4 C1.34 4 0.68 4 0 4 C0 5.98 0 7.96 0 10 C-0.66 10 -1.32 10 -2 10 C-2 11.32 -2 12.64 -2 14 C-2.66 14 -3.32 14 -4 14 C-4 15.32 -4 16.64 -4 18 C-4.66 18 -5.32 18 -6 18 C-6 15.36 -6 12.72 -6 10 C-5.34 10 -4.68 10 -4 10 C-4 8.68 -4 7.36 -4 6 C-3.34 6 -2.68 6 -2 6 C-2 4.68 -2 3.36 -2 2 C-1.34 2 -0.68 2 0 2 C0 1.34 0 0.68 0 0 Z " fill="#E0AD74" transform="translate(72,72)"/>
<path d="M0 0 C3.21880117 3.7935871 5.6163187 7.65829477 8 12 C5.69 12.66 3.38 13.32 1 14 C0.34 13.01 -0.32 12.02 -1 11 C-0.67 10.01 -0.34 9.02 0 8 C-0.33 7.67 -0.66 7.34 -1 7 C-0.71269945 4.66055264 -0.38063221 2.3260857 0 0 Z " fill="#150D0C" transform="translate(117,75)"/>
<path d="M0 0 C0.66 0 1.32 0 2 0 C2 0.66 2 1.32 2 2 C2.66 2 3.32 2 4 2 C4 2.66 4 3.32 4 4 C4.66 4 5.32 4 6 4 C6 4.66 6 5.32 6 6 C7.32 6 8.64 6 10 6 C10 6.66 10 7.32 10 8 C10.66 8 11.32 8 12 8 C12 8.66 12 9.32 12 10 C13.32 10 14.64 10 16 10 C16 10.66 16 11.32 16 12 C17.32 12 18.64 12 20 12 C20 12.99 20 13.98 20 15 C15.69583738 13.70938698 12.11453453 12.07901684 8.3125 9.6875 C7.38050781 9.11386719 6.44851562 8.54023438 5.48828125 7.94921875 C2.82262159 5.86104894 1.50705719 4.00907406 0 1 C0 0.67 0 0.34 0 0 Z " fill="#FB9756" transform="translate(44,128)"/>
<path d="M0 0 C0.33 -0.33 0.66 -0.66 1 -1 C3.67058851 -1.14115161 6.32432238 -1.04247107 9 -1 C9 -0.34 9 0.32 9 1 C7.68 1.33 6.36 1.66 5 2 C5.33 2.66 5.66 3.32 6 4 C3.69 4.66 1.38 5.32 -1 6 C-0.67 5.01 -0.34 4.02 0 3 C-2.31 2.67 -4.62 2.34 -7 2 C-7 1.34 -7 0.68 -7 0 C-3.80756358 -1.06414547 -3.07152658 -0.81907375 0 0 Z " fill="#281A16" transform="translate(97,103)"/>
<path d="M0 0 C0.99 0.33 1.98 0.66 3 1 C2.01 4.3 1.02 7.6 0 11 C-0.66 11 -1.32 11 -2 11 C-2 9.35 -2 7.7 -2 6 C-2.66 6 -3.32 6 -4 6 C-4 7.98 -4 9.96 -4 12 C-4.99 12 -5.98 12 -7 12 C-6.125 4.25 -6.125 4.25 -5 2 C-2.525 2.99 -2.525 2.99 0 4 C0 2.68 0 1.36 0 0 Z " fill="#F47C43" transform="translate(32,66)"/>
<path d="M0 0 C0.33 0 0.66 0 1 0 C1 1.65 1 3.3 1 5 C5.29 5.33 9.58 5.66 14 6 C14 5.34 14 4.68 14 4 C14.66 4 15.32 4 16 4 C15.8125 5.875 15.8125 5.875 15 8 C12.09903187 9.74058088 10.31930172 10.01954909 6.9375 9.8125 C3.84078229 8.95596106 2.14780901 8.39563313 0 6 C-0.25 2.8125 -0.25 2.8125 0 0 Z " fill="#45231D" transform="translate(70,96)"/>
<path d="M0 0 C6.81818182 1.96969697 6.81818182 1.96969697 9 5 C9 5.99 9 6.98 9 8 C9.99 8.33 10.98 8.66 12 9 C15 12.44444444 15 12.44444444 15 15 C14.34 15 13.68 15 13 15 C12.67 15.66 12.34 16.32 12 17 C12 15.68 12 14.36 12 13 C11.34 13 10.68 13 10 13 C10 12.34 10 11.68 10 11 C9.34 11 8.68 11 8 11 C8 9.68 8 8.36 8 7 C7.34 7 6.68 7 6 7 C6 6.34 6 5.68 6 5 C5.34 5 4.68 5 4 5 C4 4.34 4 3.68 4 3 C2.68 3 1.36 3 0 3 C0 2.01 0 1.02 0 0 Z " fill="#D77941" transform="translate(100,71)"/>
<path d="M0 0 C0.66 0 1.32 0 2 0 C2 0.66 2 1.32 2 2 C2.66 2 3.32 2 4 2 C4 3.32 4 4.64 4 6 C4.66 6 5.32 6 6 6 C6 6.66 6 7.32 6 8 C8.64 8 11.28 8 14 8 C14 8.66 14 9.32 14 10 C10.37 10 6.74 10 3 10 C2.34 8.02 1.68 6.04 1 4 C0.01 4 -0.98 4 -2 4 C-2 3.34 -2 2.68 -2 2 C-1.34 2 -0.68 2 0 2 C0 1.34 0 0.68 0 0 Z " fill="#94391B" transform="translate(108,88)"/>
<path d="M0 0 C0.66 0 1.32 0 2 0 C2 1.98 2 3.96 2 6 C1.34 6 0.68 6 0 6 C0 7.32 0 8.64 0 10 C-1.32 10 -2.64 10 -4 10 C-4 11.32 -4 12.64 -4 14 C-4.66 14 -5.32 14 -6 14 C-6.33 15.32 -6.66 16.64 -7 18 C-7.28571429 9.42857143 -7.28571429 9.42857143 -5 6 C-4.34 6 -3.68 6 -3 6 C-2.67 5.34 -2.34 4.68 -2 4 C-1.34 4 -0.68 4 0 4 C0 2.68 0 1.36 0 0 Z " fill="#2E2722" transform="translate(74,58)"/>
<path d="M0 0 C2.16874252 0.50603992 3.99967627 0.99983813 6 2 C6 2.66 6 3.32 6 4 C6.66 4 7.32 4 8 4 C8 5.32 8 6.64 8 8 C5.36 8 2.72 8 0 8 C0 5.36 0 2.72 0 0 Z " fill="#EB6829" transform="translate(114,88)"/>
<path d="M0 0 C0.66 1.32 1.32 2.64 2 4 C2.66 4 3.32 4 4 4 C4 5.98 4 7.96 4 10 C3.34 10 2.68 10 2 10 C2 11.98 2 13.96 2 16 C1.34 16 0.68 16 0 16 C0 16.66 0 17.32 0 18 C-0.66 18 -1.32 18 -2 18 C-2 16.68 -2 15.36 -2 14 C-1.34 14 -0.68 14 0 14 C0 13.01 0 12.02 0 11 C-0.66 11 -1.32 11 -2 11 C-1.34 7.37 -0.68 3.74 0 0 Z " fill="#E04015" transform="translate(140,94)"/>
<path d="M0 0 C0.66 0 1.32 0 2 0 C2 1.32 2 2.64 2 4 C2.66 4 3.32 4 4 4 C4 5.32 4 6.64 4 8 C4.66 8 5.32 8 6 8 C6 8.66 6 9.32 6 10 C5.34 10 4.68 10 4 10 C4 11.32 4 12.64 4 14 C3.34 14 2.68 14 2 14 C1.27273948 12.4252706 0.56879578 10.83975721 -0.125 9.25 C-0.51945313 8.36828125 -0.91390625 7.4865625 -1.3203125 6.578125 C-2 4 -2 4 -1.1171875 1.671875 C-0.74851563 1.12015625 -0.37984375 0.5684375 0 0 Z " fill="#DC4C22" transform="translate(138,58)"/>
<path d="M0 0 C0.99 0.33 1.98 0.66 3 1 C1.80603441 4.58189678 0.60092839 5.33296142 -2.375 7.5625 C-3.16648437 8.16191406 -3.95796875 8.76132813 -4.7734375 9.37890625 C-6.48687702 10.62641046 -8.23649659 11.82433106 -10 13 C-10.99 12.67 -11.98 12.34 -13 12 C-12.67 11.34 -12.34 10.68 -12 10 C-11.34 10 -10.68 10 -10 10 C-10 9.34 -10 8.68 -10 8 C-8.68 8 -7.36 8 -6 8 C-6 7.34 -6 6.68 -6 6 C-5.34 6 -4.68 6 -4 6 C-4 5.34 -4 4.68 -4 4 C-3.34 4 -2.68 4 -2 4 C-2 3.34 -2 2.68 -2 2 C-1.34 2 -0.68 2 0 2 C0 1.34 0 0.68 0 0 Z " fill="#F98952" transform="translate(128,126)"/>
<path d="M0 0 C0.99 0 1.98 0 3 0 C3 4.62 3 9.24 3 14 C1.68 13.67 0.36 13.34 -1 13 C-0.67 8.71 -0.34 4.42 0 0 Z " fill="#F05B25" transform="translate(25,78)"/>
<path d="M0 0 C1.32 0 2.64 0 4 0 C4 1.32 4 2.64 4 4 C5.32 4 6.64 4 8 4 C8 4.66 8 5.32 8 6 C6.68 6 5.36 6 4 6 C4.33 6.99 4.66 7.98 5 9 C4.01 9.33 3.02 9.66 2 10 C1.01 9.34 0.02 8.68 -1 8 C-0.67 5.36 -0.34 2.72 0 0 Z " fill="#7C2A1C" transform="translate(80,70)"/>
<path d="M0 0 C1.32 0 2.64 0 4 0 C4 0.66 4 1.32 4 2 C4.66 2 5.32 2 6 2 C6 2.66 6 3.32 6 4 C6.66 4 7.32 4 8 4 C8 4.66 8 5.32 8 6 C8.66 6 9.32 6 10 6 C9.67 7.98 9.34 9.96 9 12 C8.67 11.34 8.34 10.68 8 10 C7.34 10 6.68 10 6 10 C6 9.34 6 8.68 6 8 C5.34 8 4.68 8 4 8 C4 7.34 4 6.68 4 6 C3.01 5.67 2.02 5.34 1 5 C1.33 4.01 1.66 3.02 2 2 C1.34 2 0.68 2 0 2 C0 1.34 0 0.68 0 0 Z " fill="#F54611" transform="translate(120,38)"/>
<path d="M0 0 C0.66 0 1.32 0 2 0 C3.35439668 2.70879335 3.06501451 5.00933268 3 8 C3.66 8.33 4.32 8.66 5 9 C4.67 9.66 4.34 10.32 4 11 C5.32 11.33 6.64 11.66 8 12 C6.02 12 4.04 12 2 12 C2 12.66 2 13.32 2 14 C1.34 14 0.68 14 0 14 C0 9.38 0 4.76 0 0 Z " fill="#703925" transform="translate(60,104)"/>
<path d="M0 0 C0.66 0.33 1.32 0.66 2 1 C1.34 1.66 0.68 2.32 0 3 C0.66 3.33 1.32 3.66 2 4 C2 4.66 2 5.32 2 6 C1.34 6 0.68 6 0 6 C0 6.66 0 7.32 0 8 C-0.66 8 -1.32 8 -2 8 C-2 8.66 -2 9.32 -2 10 C-2.66 10 -3.32 10 -4 10 C-4 10.66 -4 11.32 -4 12 C-5.32 12 -6.64 12 -8 12 C-8 11.34 -8 10.68 -8 10 C-7.34 10 -6.68 10 -6 10 C-6 9.34 -6 8.68 -6 8 C-5.34 8 -4.68 8 -4 8 C-4.33 7.01 -4.66 6.02 -5 5 C-3.35 3.35 -1.7 1.7 0 0 Z " fill="#F6480D" transform="translate(126,122)"/>
<path d="M0 0 C2.43816585 -0.0809723 4.87364384 -0.14046972 7.3125 -0.1875 C8.34793945 -0.22520508 8.34793945 -0.22520508 9.40429688 -0.26367188 C11.42578125 -0.29296875 11.42578125 -0.29296875 15 0 C15.99 0.99 16.98 1.98 18 3 C12.72 3 7.44 3 2 3 C2 2.34 2 1.68 2 1 C1.34 0.67 0.68 0.34 0 0 Z " fill="#E48951" transform="translate(80,23)"/>
<path d="M0 0 C3.3 0 6.6 0 10 0 C10 0.66 10 1.32 10 2 C7.36 2 4.72 2 2 2 C2 2.66 2 3.32 2 4 C1.34 4 0.68 4 0 4 C0 4.66 0 5.32 0 6 C0.66 6 1.32 6 2 6 C2 7.32 2 8.64 2 10 C1.34 10 0.68 10 0 10 C0 9.34 0 8.68 0 8 C-0.66 8 -1.32 8 -2 8 C-2 6.02 -2 4.04 -2 2 C-1.34 2 -0.68 2 0 2 C0 1.34 0 0.68 0 0 Z " fill="#6D1907" transform="translate(96,84)"/>
<path d="M0 0 C0.33 0 0.66 0 1 0 C1 1.65 1 3.3 1 5 C1.66 5 2.32 5 3 5 C3 4.34 3 3.68 3 3 C3.66 3 4.32 3 5 3 C5 4.32 5 5.64 5 7 C4.34 7 3.68 7 3 7 C3 7.66 3 8.32 3 9 C2.34 9 1.68 9 1 9 C1 8.34 1 7.68 1 7 C0.34 7 -0.32 7 -1 7 C-1 8.32 -1 9.64 -1 11 C-1.66 11 -2.32 11 -3 11 C-3.33 12.32 -3.66 13.64 -4 15 C-4.75 13.4375 -4.75 13.4375 -5 11 C-4.03851278 9.20522386 -3.06964486 7.4112409 -1.9921875 5.68359375 C-0.8996878 3.82978521 -0.33978544 2.12365901 0 0 Z " fill="#664135" transform="translate(75,51)"/>
<path d="M0 0 C0 3.3 0 6.6 0 10 C0.66 10 1.32 10 2 10 C2 10.99 2 11.98 2 13 C-1.16115776 11.63016497 -1.9927092 11.0109362 -4 8 C-4.3125 4.9375 -4.3125 4.9375 -4 2 C-1 0 -1 0 0 0 Z " fill="#4B3023" transform="translate(52,110)"/>
<path d="M0 0 C1.32 0.33 2.64 0.66 4 1 C3.8125 2.8125 3.8125 2.8125 3 5 C0.6875 6.8125 0.6875 6.8125 -2 8 C-4.3125 7.6875 -4.3125 7.6875 -6 7 C-6 6.01 -6 5.02 -6 4 C-4.68 4 -3.36 4 -2 4 C-2 3.34 -2 2.68 -2 2 C-1.34 2 -0.68 2 0 2 C0 1.34 0 0.68 0 0 Z " fill="#421A17" transform="translate(90,72)"/>
<path d="M0 0 C2.64 0 5.28 0 8 0 C8.33 0.99 8.66 1.98 9 3 C9.99 3.33 10.98 3.66 12 4 C10.68 4 9.36 4 8 4 C7.67 5.32 7.34 6.64 7 8 C6.67 6.68 6.34 5.36 6 4 C4.68 4 3.36 4 2 4 C2 3.34 2 2.68 2 2 C1.34 2 0.68 2 0 2 C0 1.34 0 0.68 0 0 Z " fill="#C3491D" transform="translate(58,136)"/>
<path d="M0 0 C1.32 0.33 2.64 0.66 4 1 C1.87258608 5.70270446 -0.62060825 9.16393369 -4 13 C-4.66 12.67 -5.32 12.34 -6 12 C-6 11.34 -6 10.68 -6 10 C-5.34 10 -4.68 10 -4 10 C-4 9.34 -4 8.68 -4 8 C-3.34 8 -2.68 8 -2 8 C-2 6.68 -2 5.36 -2 4 C-1.34 4 -0.68 4 0 4 C0 2.68 0 1.36 0 0 Z " fill="#EA6E44" transform="translate(138,112)"/>
<path d="M0 0 C1.98 0 3.96 0 6 0 C6 1.98 6 3.96 6 6 C4.02 6 2.04 6 0 6 C0 5.34 0 4.68 0 4 C-0.66 4 -1.32 4 -2 4 C-2 3.34 -2 2.68 -2 2 C-1.34 2 -0.68 2 0 2 C0 1.34 0 0.68 0 0 Z " fill="#F68719" transform="translate(98,86)"/>
<path d="M0 0 C1.32 0 2.64 0 4 0 C4 0.66 4 1.32 4 2 C4.66 2 5.32 2 6 2 C6 3.32 6 4.64 6 6 C3.36 6 0.72 6 -2 6 C-2 4.68 -2 3.36 -2 2 C-1.34 2 -0.68 2 0 2 C0 1.34 0 0.68 0 0 Z " fill="#D66622" transform="translate(80,48)"/>
<path d="M0 0 C4.25721298 0.47302366 6.32946082 2.81018931 9 6 C9 7.32 9 8.64 9 10 C7.68 10 6.36 10 5 10 C5 8.68 5 7.36 5 6 C4.34 6 3.68 6 3 6 C3 5.34 3 4.68 3 4 C2.34 4 1.68 4 1 4 C0.67 2.68 0.34 1.36 0 0 Z " fill="#32201A" transform="translate(99,56)"/>
<path d="M0 0 C0.66 0 1.32 0 2 0 C2 0.66 2 1.32 2 2 C3.32 2 4.64 2 6 2 C6 3.65 6 5.3 6 7 C-1.75 5.375 -1.75 5.375 -4 2 C-2.68 2 -1.36 2 0 2 C0 1.34 0 0.68 0 0 Z " fill="#F96627" transform="translate(104,28)"/>
<path d="M0 0 C0.66 0 1.32 0 2 0 C2 0.66 2 1.32 2 2 C3.32 2.33 4.64 2.66 6 3 C5.505 3.4125 5.01 3.825 4.5 4.25 C2.56613908 6.12202338 2.56613908 6.12202338 3 10 C1.35 10 -0.3 10 -2 10 C-2 8.68 -2 7.36 -2 6 C-1.34 6 -0.68 6 0 6 C0 4.02 0 2.04 0 0 Z " fill="#984A2B" transform="translate(86,50)"/>
<path d="M0 0 C4.65078045 0.28186548 7.20117979 2.47603185 10.64453125 5.33203125 C12 7 12 7 12 11 C11.34 11 10.68 11 10 11 C10 10.34 10 9.68 10 9 C9.34 9 8.68 9 8 9 C8 8.34 8 7.68 8 7 C7.34 7 6.68 7 6 7 C6 6.34 6 5.68 6 5 C5.34 5 4.68 5 4 5 C4 4.34 4 3.68 4 3 C3.34 3 2.68 3 2 3 C2 2.34 2 1.68 2 1 C1.34 0.67 0.68 0.34 0 0 Z " fill="#3E3625" transform="translate(88,47)"/>
<path d="M0 0 C0.99 0 1.98 0 3 0 C3 1.98 3 3.96 3 6 C3.66 6 4.32 6 5 6 C5 8.31 5 10.62 5 13 C4.34 13 3.68 13 3 13 C2.49242138 11.58603098 1.99425075 10.16868271 1.5 8.75 C1.08234375 7.56664063 1.08234375 7.56664063 0.65625 6.359375 C0 4 0 4 0 0 Z " fill="#FB9E68" transform="translate(25,96)"/>
<path d="M0 0 C1.32 0.66 2.64 1.32 4 2 C4 3.98 4 5.96 4 8 C3.34 8 2.68 8 2 8 C2 8.66 2 9.32 2 10 C1.34 10 0.68 10 0 10 C-0.33 9.34 -0.66 8.68 -1 8 C-1.66 7.67 -2.32 7.34 -3 7 C-2.01 4.69 -1.02 2.38 0 0 Z " fill="#20150A" transform="translate(54,98)"/>
<path d="M0 0 C2.31 0 4.62 0 7 0 C7.33 2.64 7.66 5.28 8 8 C7.01 8 6.02 8 5 8 C4.67 6.35 4.34 4.7 4 3 C2.68 3.33 1.36 3.66 0 4 C0 2.68 0 1.36 0 0 Z " fill="#FA7934" transform="translate(25,92)"/>
<path d="M0 0 C4.31180732 0.48405436 6.0589554 1.62004866 8.8125 4.9375 C9.41707031 5.64777344 10.02164063 6.35804687 10.64453125 7.08984375 C12 9 12 9 12 11 C11.34 11 10.68 11 10 11 C10 10.34 10 9.68 10 9 C9.34 9 8.68 9 8 9 C8 8.34 8 7.68 8 7 C7.34 7 6.68 7 6 7 C6 6.34 6 5.68 6 5 C5.34 5 4.68 5 4 5 C4 4.34 4 3.68 4 3 C3.34 3 2.68 3 2 3 C2 2.34 2 1.68 2 1 C1.34 0.67 0.68 0.34 0 0 Z " fill="#FA8E61" transform="translate(122,37)"/>
<path d="M0 0 C0.99 0 1.98 0 3 0 C3.92844389 4.33273814 3.92844389 7.66726186 3 12 C2.34 12 1.68 12 1 12 C0.67 8.04 0.34 4.08 0 0 Z " fill="#34211E" transform="translate(62,100)"/>
<path d="M0 0 C0.66 0 1.32 0 2 0 C2 1.98 2 3.96 2 6 C2.66 6 3.32 6 4 6 C3.34 7.32 2.68 8.64 2 10 C2 9.34 2 8.68 2 8 C1.34 8 0.68 8 0 8 C0 8.66 0 9.32 0 10 C-1.32 10 -2.64 10 -4 10 C-4 9.34 -4 8.68 -4 8 C-3.34 8 -2.68 8 -2 8 C-2 7.34 -2 6.68 -2 6 C-1.34 6 -0.68 6 0 6 C0 4.02 0 2.04 0 0 Z " fill="#2F0705" transform="translate(84,92)"/>
<path d="M0 0 C1.485 0.99 1.485 0.99 3 2 C3.36328125 4.3125 3.36328125 4.3125 3.3125 7 C3.30863281 7.886875 3.30476562 8.77375 3.30078125 9.6875 C3 12 3 12 1 14 C0 13 0 13 -0.09765625 10.05859375 C-0.08605469 8.86363281 -0.07445312 7.66867188 -0.0625 6.4375 C-0.05347656 5.23996094 -0.04445312 4.04242188 -0.03515625 2.80859375 C-0.02355469 1.88175781 -0.01195312 0.95492187 0 0 Z " fill="#F1875F" transform="translate(146,81)"/>
<path d="M0 0 C5.80205656 5.64524422 5.80205656 5.64524422 8 9 C8 9.66 8 10.32 8 11 C6.68 11 5.36 11 4 11 C4 9.68 4 8.36 4 7 C3.34 7 2.68 7 2 7 C2 6.34 2 5.68 2 5 C1.34 5 0.68 5 0 5 C0 3.35 0 1.7 0 0 Z " fill="#F77044" transform="translate(134,47)"/>
<path d="M0 0 C0 0.99 0 1.98 0 3 C-1.32 3 -2.64 3 -4 3 C-4 3.66 -4 4.32 -4 5 C-4.66 5 -5.32 5 -6 5 C-6 5.66 -6 6.32 -6 7 C-8.31 7.33 -10.62 7.66 -13 8 C-10.96209491 5.88132428 -8.87395845 4.04611439 -6.5 2.3125 C-5.9121875 1.87550781 -5.324375 1.43851563 -4.71875 0.98828125 C-3 0 -3 0 0 0 Z " fill="#F58A4C" transform="translate(62,29)"/>
<path d="M0 0 C2.97 0.495 2.97 0.495 6 1 C3.65085508 3.34914492 2.04320554 3.73140357 -1.125 4.625 C-2.03507812 4.88539062 -2.94515625 5.14578125 -3.8828125 5.4140625 C-4.58148438 5.60742188 -5.28015625 5.80078125 -6 6 C-6.66 5.34 -7.32 4.68 -8 4 C-6.68 4 -5.36 4 -4 4 C-4 3.34 -4 2.68 -4 2 C-2.68 2 -1.36 2 0 2 C0 1.34 0 0.68 0 0 Z " fill="#4A3C2E" transform="translate(68,116)"/>
<path d="M0 0 C0.33 0 0.66 0 1 0 C1.33 3.63 1.66 7.26 2 11 C-0.97 10.505 -0.97 10.505 -4 10 C-2.68 6.7 -1.36 3.4 0 0 Z " fill="#14100D" transform="translate(62,79)"/>
<path d="M0 0 C0.66 0 1.32 0 2 0 C2 0.66 2 1.32 2 2 C2.66 2 3.32 2 4 2 C4 2.66 4 3.32 4 4 C2.68 4 1.36 4 0 4 C0 5.32 0 6.64 0 8 C-1.32 8 -2.64 8 -4 8 C-4 6.68 -4 5.36 -4 4 C-3.34 4 -2.68 4 -2 4 C-2 3.34 -2 2.68 -2 2 C-1.34 2 -0.68 2 0 2 C0 1.34 0 0.68 0 0 Z " fill="#F0A156" transform="translate(84,62)"/>
<path d="M0 0 C1.1875 1.6875 1.1875 1.6875 1.1875 3.6875 C0.5275 3.6875 -0.1325 3.6875 -0.8125 3.6875 C-0.8125 4.3475 -0.8125 5.0075 -0.8125 5.6875 C-1.4725 5.6875 -2.1325 5.6875 -2.8125 5.6875 C-2.8125 5.0275 -2.8125 4.3675 -2.8125 3.6875 C-3.4725 3.6875 -4.1325 3.6875 -4.8125 3.6875 C-4.8125 3.0275 -4.8125 2.3675 -4.8125 1.6875 C-5.4725 1.6875 -6.1325 1.6875 -6.8125 1.6875 C-6.8125 1.0275 -6.8125 0.3675 -6.8125 -0.3125 C-2.28877737 -1.65739051 -2.28877737 -1.65739051 0 0 Z " fill="#6C2B1C" transform="translate(90.8125,60.3125)"/>
<path d="M0 0 C2.64 0 5.28 0 8 0 C8 0.66 8 1.32 8 2 C6.02 2 4.04 2 2 2 C2 2.66 2 3.32 2 4 C0.02 4 -1.96 4 -4 4 C-4 3.34 -4 2.68 -4 2 C-2.68 2 -1.36 2 0 2 C0 1.34 0 0.68 0 0 Z " fill="#EB4E0C" transform="translate(98,140)"/>
<path d="M0 0 C0.99 0 1.98 0 3 0 C3 0.99 3 1.98 3 3 C4.32 3.33 5.64 3.66 7 4 C6.01 4.495 6.01 4.495 5 5 C4.67 5.66 4.34 6.32 4 7 C2.02 6.34 0.04 5.68 -2 5 C-1.34 3.35 -0.68 1.7 0 0 Z " fill="#F55D23" transform="translate(127,121)"/>
<path d="M0 0 C0.99 0.33 1.98 0.66 3 1 C3 4.96 3 8.92 3 13 C0.41073669 10.41073669 0.62601957 8.97294721 0.375 5.375 C0.30023438 4.37210937 0.22546875 3.36921875 0.1484375 2.3359375 C0.09945312 1.56507812 0.05046875 0.79421875 0 0 Z " fill="#E46748" transform="translate(141,79)"/>
<path d="M0 0 C0.99 0.495 0.99 0.495 2 1 C2.99 0.67 3.98 0.34 5 0 C5.99 0.33 6.98 0.66 8 1 C8.33 1.99 8.66 2.98 9 4 C6.69 4.66 4.38 5.32 2 6 C0 3 0 3 0 0 Z " fill="#23110D" transform="translate(116,83)"/>
<path d="M0 0 C2.875 0.3125 2.875 0.3125 6 1 C6.66 1.99 7.32 2.98 8 4 C6.68 3.67 5.36 3.34 4 3 C4 3.99 4 4.98 4 6 C3.34 6 2.68 6 2 6 C2 5.34 2 4.68 2 4 C1.34 4 0.68 4 0 4 C0 2.68 0 1.36 0 0 Z " fill="#9D3414" transform="translate(96,68)"/>
<path d="M0 0 C0.66 0 1.32 0 2 0 C2 0.66 2 1.32 2 2 C2.66 2 3.32 2 4 2 C4 2.66 4 3.32 4 4 C4.66 4 5.32 4 6 4 C5.67 5.65 5.34 7.3 5 9 C3.02 7.35 1.04 5.7 -1 4 C-0.67 2.68 -0.34 1.36 0 0 Z " fill="#210A03" transform="translate(98,58)"/>
<path d="M0 0 C3.96 1.98 3.96 1.98 8 4 C8 4.33 8 4.66 8 5 C6.35 5 4.7 5 3 5 C3 5.66 3 6.32 3 7 C2.34 7 1.68 7 1 7 C1 6.34 1 5.68 1 5 C0.34 5 -0.32 5 -1 5 C-0.67 3.35 -0.34 1.7 0 0 Z " fill="#F66826" transform="translate(55,131)"/>
<path d="M0 0 C0.66 0 1.32 0 2 0 C2 1.32 2 2.64 2 4 C1.34 4 0.68 4 0 4 C0 4.66 0 5.32 0 6 C-0.66 6 -1.32 6 -2 6 C-2 6.66 -2 7.32 -2 8 C-2.66 8 -3.32 8 -4 8 C-4 7.01 -4 6.02 -4 5 C-4.66 4.67 -5.32 4.34 -6 4 C-4.68 4 -3.36 4 -2 4 C-2 3.34 -2 2.68 -2 2 C-1.34 2 -0.68 2 0 2 C0 1.34 0 0.68 0 0 Z " fill="#ED3C0A" transform="translate(134,116)"/>
<path d="M0 0 C0 0.66 0 1.32 0 2 C0.66 2.33 1.32 2.66 2 3 C2 3.66 2 4.32 2 5 C-1.63 4.67 -5.26 4.34 -9 4 C-3 0 -3 0 0 0 Z " fill="#1C110B" transform="translate(76,109)"/>
<path d="M0 0 C0.66 0 1.32 0 2 0 C2 1.32 2 2.64 2 4 C2.66 4 3.32 4 4 4 C4 4.66 4 5.32 4 6 C4.66 6 5.32 6 6 6 C5.67 6.99 5.34 7.98 5 9 C0.125 6.375 0.125 6.375 -1 3 C-0.67 2.01 -0.34 1.02 0 0 Z " fill="#412A10" transform="translate(112,76)"/>
<path d="M0 0 C1.32 0.33 2.64 0.66 4 1 C4.33 4.3 4.66 7.6 5 11 C4.01 11.495 4.01 11.495 3 12 C1.8422494 8.52674819 1.93133348 5.63932552 2 2 C1.34 2 0.68 2 0 2 C0 1.34 0 0.68 0 0 Z " fill="#D95837" transform="translate(144,72)"/>
<path d="M0 0 C1.32 0.66 2.64 1.32 4 2 C2.35 3.98 0.7 5.96 -1 8 C-1.33 7.34 -1.66 6.68 -2 6 C-2.66 6 -3.32 6 -4 6 C-4 5.34 -4 4.68 -4 4 C-3.34 4 -2.68 4 -2 4 C-2 3.34 -2 2.68 -2 2 C-1.34 2 -0.68 2 0 2 C0 1.34 0 0.68 0 0 Z " fill="#F66329" transform="translate(46,42)"/>
<path d="M0 0 C2.375 0.25 2.375 0.25 5 1 C6.3125 3.0625 6.3125 3.0625 7 5 C5.35 5.33 3.7 5.66 2 6 C2 5.34 2 4.68 2 4 C1.34 4 0.68 4 0 4 C0 2.68 0 1.36 0 0 Z " fill="#F65A19" transform="translate(38,118)"/>
<path d="M0 0 C1.32 0 2.64 0 4 0 C4 0.99 4 1.98 4 3 C1.69 3.66 -0.62 4.32 -3 5 C-3.99 4.01 -4.98 3.02 -6 2 C-4.02 2 -2.04 2 0 2 C0 1.34 0 0.68 0 0 Z " fill="#453B2C" transform="translate(106,102)"/>
<path d="M0 0 C4.455 0.99 4.455 0.99 9 2 C8.67 2.99 8.34 3.98 8 5 C6.68 4.67 5.36 4.34 4 4 C4 3.34 4 2.68 4 2 C2.68 2 1.36 2 0 2 C0 2.66 0 3.32 0 4 C-0.99 3.67 -1.98 3.34 -3 3 C-2.34 3 -1.68 3 -1 3 C-0.67 2.01 -0.34 1.02 0 0 Z " fill="#3F3A36" transform="translate(88,104)"/>
<path d="M0 0 C1.98 0 3.96 0 6 0 C6 0.66 6 1.32 6 2 C4.68 2 3.36 2 2 2 C2 2.66 2 3.32 2 4 C0.02 4 -1.96 4 -4 4 C-4 3.34 -4 2.68 -4 2 C-2.68 2 -1.36 2 0 2 C0 1.34 0 0.68 0 0 Z " fill="#2A1108" transform="translate(62,116)"/>
<path d="M0 0 C2.97 0 5.94 0 9 0 C8.01 1.485 8.01 1.485 7 3 C3.375 3.1875 3.375 3.1875 0 3 C0 2.01 0 1.02 0 0 Z " fill="#4B4539" transform="translate(112,100)"/>
<path d="M0 0 C0.66 0 1.32 0 2 0 C2 0.99 2 1.98 2 3 C2.66 3 3.32 3 4 3 C3.67 4.32 3.34 5.64 3 7 C1.35 6.67 -0.3 6.34 -2 6 C-2 5.34 -2 4.68 -2 4 C-1.34 4 -0.68 4 0 4 C0 2.68 0 1.36 0 0 Z " fill="#7B3519" transform="translate(72,78)"/>
<path d="M0 0 C1.98 0 3.96 0 6 0 C6 1.32 6 2.64 6 4 C4.02 4 2.04 4 0 4 C0 2.68 0 1.36 0 0 Z " fill="#EFC684" transform="translate(84,70)"/>
<path d="M0 0 C0.66 0 1.32 0 2 0 C2 1.98 2 3.96 2 6 C1.34 6 0.68 6 0 6 C0 7.32 0 8.64 0 10 C-0.66 10 -1.32 10 -2 10 C-2 8.02 -2 6.04 -2 4 C-1.34 4 -0.68 4 0 4 C0 2.68 0 1.36 0 0 Z " fill="#2F140E" transform="translate(74,58)"/>
<path d="M0 0 C0.66 0 1.32 0 2 0 C2 1.98 2 3.96 2 6 C1.34 6 0.68 6 0 6 C0 6.66 0 7.32 0 8 C-0.66 8 -1.32 8 -2 8 C-2 6.02 -2 4.04 -2 2 C-1.34 2 -0.68 2 0 2 C0 1.34 0 0.68 0 0 Z " fill="#DAC2A8" transform="translate(78,58)"/>
<path d="M0 0 C0.66 0.66 1.32 1.32 2 2 C1.67 2.99 1.34 3.98 1 5 C1.66 5 2.32 5 3 5 C3 5.66 3 6.32 3 7 C1.68 7 0.36 7 -1 7 C-1 6.34 -1 5.68 -1 5 C-1.66 5 -2.32 5 -3 5 C-3 3.68 -3 2.36 -3 1 C-2.01 0.67 -1.02 0.34 0 0 Z " fill="#19120D" transform="translate(89,45)"/>
<path d="M0 0 C0.81210938 0.29003906 1.62421875 0.58007812 2.4609375 0.87890625 C3.27820313 1.16636719 4.09546875 1.45382813 4.9375 1.75 C5.56398438 1.97816406 6.19046875 2.20632812 6.8359375 2.44140625 C3.8359375 4.44140625 3.8359375 4.44140625 1.8359375 4.44140625 C1.8359375 3.78140625 1.8359375 3.12140625 1.8359375 2.44140625 C-0.1440625 2.44140625 -2.1240625 2.44140625 -4.1640625 2.44140625 C-4.1640625 1.78140625 -4.1640625 1.12140625 -4.1640625 0.44140625 C-2.1640625 -0.55859375 -2.1640625 -0.55859375 0 0 Z " fill="#FAA353" transform="translate(104.1640625,25.55859375)"/>
<path d="M0 0 C0 0.33 0 0.66 0 1 C-1.98 1 -3.96 1 -6 1 C-6 1.66 -6 2.32 -6 3 C-8.64 3 -11.28 3 -14 3 C-13.67 2.34 -13.34 1.68 -13 1 C-8.71230214 -0.29930238 -4.43489655 -0.07516774 0 0 Z " fill="#E27F47" transform="translate(104,139)"/>
<path d="M0 0 C2.475 0.495 2.475 0.495 5 1 C5 1.66 5 2.32 5 3 C5.66 3 6.32 3 7 3 C7.33 4.65 7.66 6.3 8 8 C7.01 7.67 6.02 7.34 5 7 C5 6.34 5 5.68 5 5 C4.34 5 3.68 5 3 5 C1.375 2.5 1.375 2.5 0 0 Z " fill="#F7894C" transform="translate(37,123)"/>
<path d="M0 0 C1.32 0 2.64 0 4 0 C4 0.66 4 1.32 4 2 C4.66 2 5.32 2 6 2 C6 2.66 6 3.32 6 4 C4.35 4.33 2.7 4.66 1 5 C0.67 3.35 0.34 1.7 0 0 Z " fill="#2A2822" transform="translate(88,106)"/>
<path d="M0 0 C1.32 0 2.64 0 4 0 C7 3.21428571 7 3.21428571 7 6 C6.34 6 5.68 6 5 6 C4.67 6.66 4.34 7.32 4 8 C4 6.68 4 5.36 4 4 C3.34 4 2.68 4 2 4 C2 3.34 2 2.68 2 2 C1.34 2 0.68 2 0 2 C0 1.34 0 0.68 0 0 Z " fill="#D07137" transform="translate(108,80)"/>
<path d="M0 0 C0.66 0.66 1.32 1.32 2 2 C1.01 2 0.02 2 -1 2 C-1 2.66 -1 3.32 -1 4 C-1.66 4 -2.32 4 -3 4 C-2.67 5.32 -2.34 6.64 -2 8 C-2.99 8 -3.98 8 -5 8 C-5 6.02 -5 4.04 -5 2 C-3.35 1.34 -1.7 0.68 0 0 Z " fill="#6D2219" transform="translate(97,66)"/>
<path d="M0 0 C0.66 0 1.32 0 2 0 C2 0.66 2 1.32 2 2 C2.66 2.33 3.32 2.66 4 3 C2.68 3.33 1.36 3.66 0 4 C0 5.32 0 6.64 0 8 C-0.66 8 -1.32 8 -2 8 C-2 6.02 -2 4.04 -2 2 C-1.34 2 -0.68 2 0 2 C0 1.34 0 0.68 0 0 Z " fill="#EF5310" transform="translate(32,62)"/>
<path d="M0 0 C1.98 0 3.96 0 6 0 C6 0.66 6 1.32 6 2 C6.66 2 7.32 2 8 2 C8 2.66 8 3.32 8 4 C3.545 3.01 3.545 3.01 -1 2 C-0.67 1.34 -0.34 0.68 0 0 Z " fill="#A1644A" transform="translate(66,142)"/>
<path d="M0 0 C0.99 0.33 1.98 0.66 3 1 C1.86280581 4.41158256 0.95657056 5.11854601 -2 7 C-2.66 7 -3.32 7 -4 7 C-4 6.01 -4 5.02 -4 4 C-3.34 4 -2.68 4 -2 4 C-2 3.34 -2 2.68 -2 2 C-1.34 2 -0.68 2 0 2 C0 1.34 0 0.68 0 0 Z " fill="#F17645" transform="translate(128,126)"/>
<path d="M0 0 C2.3431213 0.25561323 4.67843403 0.59270772 7 1 C7.33 1.66 7.66 2.32 8 3 C4.7 3 1.4 3 -2 3 C-1.34 2.67 -0.68 2.34 0 2 C0 1.34 0 0.68 0 0 Z " fill="#513E37" transform="translate(81,43)"/>
<path d="M0 0 C1.32 0 2.64 0 4 0 C3.67 1.32 3.34 2.64 3 4 C0.69 3.67 -1.62 3.34 -4 3 C-2.68 2.67 -1.36 2.34 0 2 C0 1.34 0 0.68 0 0 Z " fill="#413832" transform="translate(78,112)"/>
<path d="M0 0 C0.33 0.99 0.66 1.98 1 3 C-1.64 2.67 -4.28 2.34 -7 2 C-7 1.34 -7 0.68 -7 0 C-3.89953913 -1.03348696 -2.94389782 -1.17755913 0 0 Z " fill="#1F1211" transform="translate(97,103)"/>
<path d="M0 0 C0.66 0 1.32 0 2 0 C2 0.66 2 1.32 2 2 C3.98 2 5.96 2 8 2 C8 2.66 8 3.32 8 4 C1.25 4.125 1.25 4.125 -1 3 C-0.67 2.01 -0.34 1.02 0 0 Z " fill="#6C2A0F" transform="translate(72,98)"/>
<path d="M0 0 C1.04449911 3.13349732 0.93423645 3.98968256 0 7 C-0.66 7 -1.32 7 -2 7 C-2.33 8.32 -2.66 9.64 -3 11 C-3.75 9.4375 -3.75 9.4375 -4 7 C-2.86915563 4.49713591 -1.47860484 2.32992278 0 0 Z " fill="#4C3A35" transform="translate(74,55)"/>
<path d="M0 0 C1.32 0.33 2.64 0.66 4 1 C3.67 1.99 3.34 2.98 3 4 C1.35 4.33 -0.3 4.66 -2 5 C-2 4.01 -2 3.02 -2 2 C-1.34 2 -0.68 2 0 2 C0 1.34 0 0.68 0 0 Z " fill="#FA8C4E" transform="translate(50,38)"/>
<path d="M0 0 C2.64 0.33 5.28 0.66 8 1 C6.68 1.33 5.36 1.66 4 2 C3.67 3.32 3.34 4.64 3 6 C2.67 4.68 2.34 3.36 2 2 C1.34 2 0.68 2 0 2 C0 1.34 0 0.68 0 0 Z " fill="#9E4521" transform="translate(62,138)"/>
<path d="M0 0 C0.66 0 1.32 0 2 0 C2 1.98 2 3.96 2 6 C0.68 6 -0.64 6 -2 6 C-2 4.68 -2 3.36 -2 2 C-1.34 2 -0.68 2 0 2 C0 1.34 0 0.68 0 0 Z " fill="#E98035" transform="translate(58,112)"/>
<path d="M0 0 C0.66 0 1.32 0 2 0 C2 1.98 2 3.96 2 6 C1.34 6 0.68 6 0 6 C0 6.66 0 7.32 0 8 C-0.66 8 -1.32 8 -2 8 C-2 6.68 -2 5.36 -2 4 C-1.34 4 -0.68 4 0 4 C0 2.68 0 1.36 0 0 Z " fill="#CF2406" transform="translate(140,104)"/>
<path d="M0 0 C0.33 0 0.66 0 1 0 C1 1.65 1 3.3 1 5 C2.65 5.33 4.3 5.66 6 6 C6.33 6.99 6.66 7.98 7 9 C2.25 8.25 2.25 8.25 0 6 C-0.125 2.875 -0.125 2.875 0 0 Z " fill="#4E3026" transform="translate(70,96)"/>
<path d="M0 0 C0.66 0 1.32 0 2 0 C2 1.32 2 2.64 2 4 C3.32 4 4.64 4 6 4 C6 4.66 6 5.32 6 6 C4.02 6 2.04 6 0 6 C0 4.02 0 2.04 0 0 Z " fill="#F07016" transform="translate(74,94)"/>
<path d="M0 0 C0.66 0 1.32 0 2 0 C2 0.66 2 1.32 2 2 C4.97 2.495 4.97 2.495 8 3 C7.01 3.495 7.01 3.495 6 4 C6 4.66 6 5.32 6 6 C5.34 6 4.68 6 4 6 C4 5.34 4 4.68 4 4 C2.68 4 1.36 4 0 4 C0 2.68 0 1.36 0 0 Z " fill="#674938" transform="translate(68,86)"/>
<path d="M0 0 C0.66 0 1.32 0 2 0 C2 0.66 2 1.32 2 2 C2.66 2 3.32 2 4 2 C3.67 3.32 3.34 4.64 3 6 C0.525 5.01 0.525 5.01 -2 4 C-2 3.34 -2 2.68 -2 2 C-1.34 2 -0.68 2 0 2 C0 1.34 0 0.68 0 0 Z " fill="#B05D34" transform="translate(108,88)"/>
<path d="M0 0 C1.98 0 3.96 0 6 0 C6 0.66 6 1.32 6 2 C4.68 2 3.36 2 2 2 C2 2.66 2 3.32 2 4 C0.68 4 -0.64 4 -2 4 C-2 3.34 -2 2.68 -2 2 C-1.34 2 -0.68 2 0 2 C0 1.34 0 0.68 0 0 Z " fill="#2B180F" transform="translate(76,88)"/>
<path d="M0 0 C0.66 0 1.32 0 2 0 C2 1.32 2 2.64 2 4 C1.34 4 0.68 4 0 4 C0 5.32 0 6.64 0 8 C-0.66 8 -1.32 8 -2 8 C-2 6.02 -2 4.04 -2 2 C-1.34 2 -0.68 2 0 2 C0 1.34 0 0.68 0 0 Z " fill="#F0CA8B" transform="translate(72,72)"/>
<path d="M0 0 C2.64 0 5.28 0 8 0 C8 0.66 8 1.32 8 2 C6.02 2 4.04 2 2 2 C2 2.66 2 3.32 2 4 C1.34 4 0.68 4 0 4 C0 2.68 0 1.36 0 0 Z " fill="#FD5E0E" transform="translate(66,28)"/>
<path d="M0 0 C2.31 0 4.62 0 7 0 C7 0.66 7 1.32 7 2 C4.69 2.33 2.38 2.66 0 3 C0 2.01 0 1.02 0 0 Z " fill="#F29E5C" transform="translate(92,144)"/>
<path d="M0 0 C2.97 0.495 2.97 0.495 6 1 C6 1.66 6 2.32 6 3 C4.02 3.33 2.04 3.66 0 4 C0 2.68 0 1.36 0 0 Z " fill="#321E17" transform="translate(84,76)"/>
<path d="M0 0 C0.99 0 1.98 0 3 0 C3.66 1.98 4.32 3.96 5 6 C4.01 6 3.02 6 2 6 C2 5.34 2 4.68 2 4 C1.34 4 0.68 4 0 4 C0 2.68 0 1.36 0 0 Z " fill="#ED7E5B" transform="translate(140,58)"/>
<path d="M0 0 C1.98 0 3.96 0 6 0 C6.33 0.66 6.66 1.32 7 2 C6.01 2.66 5.02 3.32 4 4 C3.01 3.67 2.02 3.34 1 3 C0.67 2.01 0.34 1.02 0 0 Z " fill="#F66F2C" transform="translate(52,36)"/>
<path d="M0 0 C0 0.66 0 1.32 0 2 C1.32 2 2.64 2 4 2 C4 2.99 4 3.98 4 5 C-1.75 3.25 -1.75 3.25 -4 1 C-2 0 -2 0 0 0 Z " fill="#BF7755" transform="translate(60,138)"/>
<path d="M0 0 C0 0.66 0 1.32 0 2 C-0.66 2 -1.32 2 -2 2 C-2 2.66 -2 3.32 -2 4 C-2.66 4 -3.32 4 -4 4 C-4 4.66 -4 5.32 -4 6 C-4.99 5.67 -5.98 5.34 -7 5 C-2.25 0 -2.25 0 0 0 Z " fill="#F76D2F" transform="translate(122,128)"/>
<path d="M0 0 C0.66 0 1.32 0 2 0 C0.75023244 3.65316671 0.32901247 4.78065836 -3 7 C-3.33 6.01 -3.66 5.02 -4 4 C-3.34 4 -2.68 4 -2 4 C-2 3.34 -2 2.68 -2 2 C-1.34 2 -0.68 2 0 2 C0 1.34 0 0.68 0 0 Z " fill="#EE8154" transform="translate(136,118)"/>
<path d="M0 0 C0.33 0 0.66 0 1 0 C1 1.98 1 3.96 1 6 C0.34 6 -0.32 6 -1 6 C-1.33 7.32 -1.66 8.64 -2 10 C-2.25 3.375 -2.25 3.375 0 0 Z " fill="#342F21" transform="translate(65,74)"/>
<path d="M0 0 C0.66 0 1.32 0 2 0 C2 0.66 2 1.32 2 2 C2.66 2 3.32 2 4 2 C4 2.66 4 3.32 4 4 C0.25 5.125 0.25 5.125 -2 4 C-2 3.34 -2 2.68 -2 2 C-1.34 2 -0.68 2 0 2 C0 1.34 0 0.68 0 0 Z " fill="#F35A1C" transform="translate(58,32)"/>
<path d="M0 0 C1.98 0 3.96 0 6 0 C6 0.99 6 1.98 6 3 C4.35 3 2.7 3 1 3 C0.67 2.01 0.34 1.02 0 0 Z " fill="#CA6939" transform="translate(86,144)"/>
<path d="M0 0 C0.99 0 1.98 0 3 0 C2.34 1.98 1.68 3.96 1 6 C0.01 6 -0.98 6 -2 6 C-2 5.34 -2 4.68 -2 4 C-1.34 4 -0.68 4 0 4 C0 2.68 0 1.36 0 0 Z " fill="#E38362" transform="translate(142,106)"/>
<path d="M0 0 C1.98 0 3.96 0 6 0 C6.33 1.32 6.66 2.64 7 4 C6.01 4 5.02 4 4 4 C4 3.34 4 2.68 4 2 C2.68 2 1.36 2 0 2 C0 1.34 0 0.68 0 0 Z " fill="#201810" transform="translate(106,100)"/>
<path d="M0 0 C1.5 1.3125 1.5 1.3125 3 3 C3 3.99 3 4.98 3 6 C1.68 6 0.36 6 -1 6 C-0.67 4.02 -0.34 2.04 0 0 Z " fill="#F94D10" transform="translate(29,86)"/>
</svg>
